<svg width="103" height="38" viewBox="0 0 103 38" fill="none" xmlns="http://www.w3.org/2000/svg">
<g clip-path="url(#clip0_40_49)">
<mask id="mask0_40_49" style="mask-type:luminance" maskUnits="userSpaceOnUse" x="0" y="0" width="103" height="38">
<path d="M102.939 0H0V37.7386H102.939V0Z" fill="white"/>
</mask>
<g mask="url(#mask0_40_49)">
<path d="M9.32578 24.0897C8.53521 23.1187 7.14395 22.4608 5.8754 22.4608C3.31073 22.4608 1.1969 24.6778 1.1969 27.2072C1.1969 28.4106 1.71505 29.5459 2.5745 30.3935C3.43332 31.2142 4.66095 31.8164 5.8754 31.8164C7.06149 31.8164 8.56183 31.1732 9.32578 30.2442V31.1459C8.35666 31.9525 7.17054 32.4312 5.90196 32.4312C3.03789 32.4312 0.54248 30.0386 0.54248 27.1526C0.54248 24.2261 2.99714 21.8463 5.91632 21.8463C7.157 21.8463 8.41235 22.3391 9.32578 23.1866V24.0897Z" fill="#0C1A3E"/>
<path d="M17.3181 22.4613C19.8688 22.4613 21.9966 24.5949 21.9966 27.1387C21.9966 29.6697 19.8688 31.8164 17.3181 31.8164C14.7539 31.8164 12.6403 29.6825 12.6403 27.1387C12.6403 24.5949 14.7539 22.4613 17.3181 22.4613ZM17.3181 21.846C14.4137 21.846 11.9858 24.2401 11.9858 27.1387C11.9858 30.0387 14.4273 32.4318 17.3181 32.4318C20.2102 32.4318 22.6517 30.0387 22.6517 27.1387C22.6517 24.2401 20.2102 21.846 17.3181 21.846Z" fill="#0C1A3E"/>
<path d="M26.2661 31.68H28.8849V32.2948H25.6118V21.9839H26.2661V31.68Z" fill="#0C1A3E"/>
<path d="M32.5681 31.68H35.1859V32.2948H31.9131V21.9839H32.5681V31.68Z" fill="#0C1A3E"/>
<path d="M38.7312 22.5984V26.346H42.8787V26.9614H38.7312V31.6794H42.9884V32.2948H38.0771V21.9839H42.9884V22.5984H38.7312Z" fill="#0C1A3E"/>
<path d="M55.9995 27.3307C56.0273 28.6291 55.8369 29.7647 54.9233 30.7638C53.9404 31.8299 52.4672 32.4318 51.0218 32.4318C48.1712 32.4318 45.7432 30.0257 45.7432 27.1802C45.7432 24.2263 48.1568 21.846 51.1041 21.846C52.9724 21.846 54.4865 22.777 55.563 24.2537L55.0318 24.6779C54.1173 23.3101 52.7264 22.4613 51.0616 22.4613C48.5523 22.4613 46.3975 24.6644 46.3975 27.1387C46.3975 29.682 48.4985 31.8164 51.0616 31.8164C52.1674 31.8164 53.245 31.3656 54.0904 30.6813C54.978 29.9283 55.3044 29.0683 55.3442 27.9455H51.6628V27.3307H55.9995Z" fill="#0C1A3E"/>
<path d="M59.9551 22.5984V26.346H64.1008V26.9614H59.9551V31.6794H64.2099V32.2948H59.2998V21.9839H64.2099V22.5984H59.9551Z" fill="#0C1A3E"/>
<path d="M30.3354 14.3592L34.3564 12.0241C34.3564 12.0241 33.8411 12.5161 33.9144 13.8975C33.9144 13.8975 33.8319 16.6656 33.9144 17.0024C33.9144 17.0024 33.9526 18.6858 36.2926 18.4081C36.2926 18.4081 37.7493 18.1503 37.7493 16.5834C37.7493 16.5834 37.7493 11.7776 37.7239 11.5312C37.7239 11.5312 37.8083 10.4491 36.9421 10.6667C36.9421 10.6667 41.1183 8.21538 41.3638 8.04266C41.3638 8.04266 40.968 8.30155 40.9191 9.38658V18.2094C40.9191 18.2094 40.8906 19.5485 41.7207 19.7017C41.7207 19.7017 38.0002 19.7376 37.7316 19.7142L37.7239 18.4317C37.7239 18.4317 36.623 19.9986 33.7476 19.9986C33.7476 19.9986 31.2805 20.0704 31.0824 18.1846C31.0824 18.1846 30.9601 16.0913 30.9601 15.0554C30.9601 15.0554 31.0252 14.113 30.3354 14.3592Z" fill="#0C1A3E"/>
<path d="M52.9526 5.59984L56.7963 3.3736C56.7963 3.3736 56.8706 10.2493 56.8706 10.5454C56.8706 10.5454 57.6335 8.72213 60.5826 8.25289C60.5826 8.25289 63.9422 7.71148 64.1408 10.4488C64.2246 11.5648 64.205 16.9585 64.205 18.4293C64.205 18.4293 64.2215 19.5166 64.9783 19.7328C64.9783 19.7328 60.3851 19.7376 60.1886 19.7376C60.1886 19.7376 60.8748 19.4424 60.927 18.407C60.927 18.407 61.0239 12.22 60.9026 11.7288C60.9026 11.7288 60.8794 10.0035 59.1314 10.0035C59.1314 10.0035 57.2285 10.165 56.9806 12.2463C56.8507 13.325 56.9207 17.6384 56.9207 18.2596C56.9207 18.2596 56.8449 19.2692 57.7102 19.7376C55.2027 19.7384 55.2785 19.7376 52.9526 19.7376C52.9526 19.7376 53.7473 19.3849 53.7504 18.2833C53.7504 18.2833 53.6761 7.51437 53.6761 6.99595C53.6761 6.99595 53.7638 5.29131 52.9526 5.59984Z" fill="#0C1A3E"/>
<path d="M12.8287 15.13C12.3334 11.3672 7.93559 10.8165 7.93559 10.8165C11.0525 8.97414 11.3283 7.32583 11.3283 6.92156C11.404 4.12439 8.80873 3.79609 8.80873 3.79609C8.13031 3.5774 0 3.71788 0 3.71788C0.7988 4.16236 0.7832 4.99986 0.7832 4.99986C0.832705 5.34459 0.930127 18.2347 0.930127 18.2347C0.7746 19.4929 0.0235596 19.7374 0.0235596 19.7374C0.244192 19.7374 8.82181 19.6885 8.82181 19.6885C13.4446 19.4693 12.8287 15.13 12.8287 15.13ZM7.05131 18.876C7.05131 18.876 4.44813 19.3022 4.34755 17.8649C4.24534 16.4271 4.32588 10.3393 4.32588 10.3393L4.27465 5.49303C4.24534 4.4313 5.65446 4.47791 5.65446 4.47791C8.58748 4.47791 8.30443 7.43918 8.30443 7.43918C8.30443 9.05633 5.84184 11.0439 5.84184 11.0439L5.8224 11.0519L5.84053 11.0571C6.07043 11.1118 9.20719 11.8388 9.43578 15.7939C9.43578 15.7939 9.78775 18.5435 7.05131 18.876Z" fill="#0C1A3E"/>
<path d="M24.2563 10.8848L28.3723 8.58801L28.4218 11.0204C28.4218 11.0204 28.8594 8.73695 31.17 8.31506C31.17 8.31506 34.1038 7.71144 34.0323 10.5959C34.0317 10.6661 30.5245 12.591 30.5245 12.591C30.5245 12.591 30.7387 12.3736 30.9227 11.884C31.0319 11.6003 31.0584 11.2771 30.9885 11.0364C30.6639 9.97581 29.5044 10.5424 29.0918 10.9949C29.0918 10.9949 28.4719 11.4024 28.4719 13.0416C28.4719 13.0416 28.4967 18.1439 28.4734 18.3925C28.4734 18.3925 28.4869 19.5266 29.1959 19.7376C29.1959 19.7376 24.2799 19.7567 24.2563 19.7085C24.2563 19.7085 24.9292 19.3717 24.9815 18.4428C25.0335 17.5134 25.0836 12.2867 25.0836 12.0388C25.0836 12.0388 25.1338 10.6634 24.2563 10.8848Z" fill="#0C1A3E"/>
<path d="M14.695 12.9684L14.7767 9.61549C14.7767 9.61549 16.7605 8.14342 19.0179 8.11676C19.0179 8.11676 22.8785 7.95189 23.3401 11.6609C23.3401 11.6609 23.233 17.0581 23.1784 17.8757C23.1784 17.8757 23.0947 19.4023 24.1841 19.7021H19.8611C19.8611 19.7021 20.1333 13.7601 20.0224 13.2134C20.0224 13.2134 17.025 14.9074 16.7344 16.4045C16.65 16.835 16.4919 18.4215 18.0387 18.4215C18.4123 18.4215 18.6131 18.2688 18.9907 17.9671C18.9907 17.9671 18.9924 19.3406 18.9924 19.5117C18.9924 19.5117 18.2563 20.0301 16.3267 19.8396C16.3267 19.8396 13.2544 19.5715 13.2544 16.6495C13.2544 16.2404 13.4719 14.7401 15.7843 13.7314C18.0933 12.7239 18.7731 12.6417 19.534 11.933C20.2949 11.2231 20.3949 9.50168 18.7193 9.37003C17.6838 9.28783 16.1358 10.2691 14.695 12.9684Z" fill="#0C1A3E"/>
<path d="M50.2654 12.9154L52.4213 10.4058C52.4213 10.4058 50.8421 7.93344 46.9535 8.31941C42.5144 8.76024 41.4838 12.4528 41.5205 13.7645C41.5467 14.6551 41.3291 19.0942 46.4507 20.176C46.4507 20.176 49.1489 20.8339 52.2679 18.9399L52.9999 15.8889C52.9999 15.8889 51.0735 18.8644 48.7623 18.9003C48.7623 18.9003 45.5855 19.336 44.9118 14.3822C44.2944 9.86283 47.0647 9.32335 47.7604 9.32335C48.1485 9.32335 50.4203 9.51727 50.2654 12.9154Z" fill="#0C1A3E"/>
<path d="M86.7915 19.5963V26.4033L80.7271 19.5848H77.6099V19.5963V32.2954H81.092V25.4883L87.0617 32.2954H90.2752V19.5963H86.7915Z" fill="#0C1A3E"/>
<path d="M102.937 14.2636V7.18488L99.5306 7.18378H99.4536V11.6293V14.2636C99.4536 14.5745 99.4059 14.8562 99.309 15.1132C99.1843 15.4391 98.9805 15.7221 98.6925 15.9687C98.1583 16.4284 97.3795 16.7025 96.6105 16.7041L96.6093 16.7037H96.6072H96.6047V16.7041C95.8342 16.7025 95.0558 16.4284 94.5215 15.9687C94.2339 15.7221 94.0291 15.4391 93.9044 15.1132C93.8078 14.8562 93.7589 14.5745 93.7589 14.2636V11.6293V7.18378H93.6831L90.2759 7.18488V11.6293V12.8782V14.2636V15.1132C90.2759 17.9202 93.3002 20.1508 96.4455 20.196C96.4785 20.196 96.5106 20.1971 96.5433 20.1971H96.5806H96.6047H96.6072H96.6093H96.6142H96.6121H96.6332H96.6704C96.7025 20.1971 96.7352 20.196 96.7685 20.196C99.913 20.1508 102.937 17.9849 102.937 15.1132V14.2636Z" fill="#0C1A3E"/>
<path d="M86.4813 15.1125C85.9202 16.0526 84.9164 16.6833 83.7685 16.6993C83.7544 16.6993 83.7391 16.7006 83.7242 16.7006C81.9368 16.7006 80.4893 15.2093 80.4893 13.3711C80.4893 11.5319 81.9368 10.0419 83.7242 10.0419C83.7391 10.0419 83.7544 10.0424 83.7685 10.0424C84.9164 10.0579 85.9202 10.6892 86.4813 11.6293H90.2761C90.2761 8.76425 87.2674 6.60232 84.131 6.54649H84.1077C84.0747 6.54569 84.0429 6.54456 84.009 6.54456C83.9968 6.54456 83.9842 6.54569 83.9711 6.54569C83.9647 6.54569 83.9586 6.54569 83.9515 6.54456H83.9519H83.9494H83.9464H83.9442C83.9354 6.54569 83.9274 6.54569 83.9198 6.54569C83.9075 6.54569 83.8953 6.54456 83.8828 6.54456C83.8498 6.54456 83.8174 6.54569 83.785 6.54649H83.5295C81.0379 6.54649 78.8575 7.8885 77.6722 9.89272C77.0695 10.911 76.7217 12.0998 76.7217 13.3703V13.3711C76.7217 14.6416 77.0695 15.8302 77.6722 16.8493C78.8575 18.8524 81.0379 20.1955 83.5295 20.1955H83.785C83.8174 20.1968 83.8498 20.1968 83.8828 20.1968H83.9198H83.9442H83.9464H83.9488H83.9519H83.9515H83.9711H84.009C84.0429 20.1968 84.0747 20.1968 84.1077 20.1955C84.1154 20.1955 84.1224 20.1955 84.131 20.1952C87.2674 20.1405 90.2761 17.9774 90.2761 15.1125H86.4813Z" fill="#0C1A3E"/>
<path d="M99.4563 19.5962L96.6077 25.422L93.758 19.5962H90.2749L94.8662 28.9833V32.2945H98.3492V28.9833L102.939 19.5962H99.4563Z" fill="#0C1A3E"/>
<path d="M70.9604 37.7383H71.4495V-0.00170898H70.9604V37.7383Z" fill="#0C1A3E"/>
</g>
</g>
<defs>
<clipPath id="clip0_40_49">
<rect width="103" height="38" fill="white"/>
</clipPath>
</defs>
</svg>
