<svg width="78" height="45" viewBox="0 0 78 45" fill="none" xmlns="http://www.w3.org/2000/svg">
<g clip-path="url(#clip0_40_122)">
<path d="M0.427246 11.6569L1.52575 10.8329V1.26043L0.427246 0.423435V0.320935H4.39725C7.90825 0.320935 9.10625 1.31343 9.10625 3.16293C9.10625 4.45693 8.13025 5.38294 6.71375 5.83993C8.55675 6.17093 9.66875 7.05743 9.66875 8.54993C9.66875 10.7434 7.87175 11.7464 4.32475 11.7464H0.427246V11.6569ZM4.52325 5.61493C6.07525 5.61493 7.20325 4.98993 7.20325 3.25593C7.20325 1.62793 6.16825 0.939435 4.26525 0.939435H3.33525V5.61493H4.52325ZM3.33575 6.17743V11.1704H4.53975C6.75975 11.1704 7.76625 10.4094 7.76625 8.67243C7.76625 7.07443 6.85275 6.16093 4.82775 6.16093L3.33575 6.17743ZM14.5522 11.7464H10.3967V11.6569L11.4952 10.8329V1.26043L10.3967 0.423435V0.320935H14.7972C17.7752 0.320935 19.3632 1.40293 19.3632 3.41093C19.3632 4.93343 18.2817 6.01543 16.7462 6.45543L19.5452 10.7569L21.0677 11.6569V11.7464H17.1727V11.6569L17.7057 11.0184L15.0092 6.71693H13.3052V10.8329L14.5522 11.6569V11.7464ZM13.3052 0.922935V6.13093H14.5687C16.3952 6.13093 17.5072 5.44593 17.5072 3.48393C17.5037 1.64443 16.5112 0.922935 14.6747 0.922935H13.3047H13.3052ZM21.4942 11.6569L22.5892 10.8329V1.26043L21.4947 0.423435V0.320935H30.1402V3.16643H30.0772L28.2212 0.956435H24.3997V5.65793H27.9332L29.0882 4.33443H29.1507V7.74593H29.0847L27.9332 6.27693H24.4002V11.1374H28.3702L30.2432 8.88743H30.3032V11.7464H21.4937L21.4942 11.6569ZM35.1762 11.7464H31.9202V11.6569L33.1382 10.7569V1.64443L31.6292 0.423435V0.320935H34.2762L40.7652 8.36793L41.1292 8.93043V1.31343L39.7757 0.423435V0.320935H43.1372V0.423435L41.8137 1.33693V11.7464H41.2977L33.8062 2.50793V10.7569L35.1762 11.6569V11.7464ZM47.3827 11.7464H44.1267V11.6569L45.3442 10.7569V1.64443L43.8392 0.423435V0.320935H46.4692L52.9712 8.35793L53.3352 8.92043V1.31343L51.9817 0.423435V0.320935H55.3437V0.423435L54.0202 1.33693V11.7464H53.5037L46.0127 2.50793V10.7569L47.3827 11.6569V11.7464ZM58.2022 11.7464H54.5992V11.6569L55.9227 10.7439L59.4697 1.14793L59.1652 0.320935H61.0217L65.0717 10.8394L66.1832 11.6469V11.7364H62.0407V11.6469L63.1227 10.8394L61.9647 7.74943H57.7327L56.6837 10.7469L58.2022 11.6569V11.7464ZM59.8007 1.99143L57.9742 7.13393H61.7362L59.8007 1.99143ZM69.7832 11.7464H66.5242V11.6569L67.7417 10.7569V1.64443L66.2427 0.423435V0.320935H68.8897L75.3752 8.36793L75.7392 8.92393V1.31393L74.3852 0.423435V0.320435H77.7502V0.422935L76.4267 1.33643V11.7459H75.9107L68.4167 2.50793V10.7569L69.7832 11.6569V11.7464Z" fill="black"/>
<path d="M3.83181 43.3124H0.403809V43.2394L1.28381 42.5779V34.8749L0.403809 34.2129V34.1404H7.39231V36.4304H7.33231L5.85031 34.6399H2.74031V38.5339H5.48281L6.41281 37.4689H6.47581V40.2249H6.41281L5.48281 39.0334H2.74031V42.5839L3.83231 43.2459L3.83181 43.3124ZM7.90831 38.7824C7.89208 38.1529 8.00371 37.5267 8.23645 36.9416C8.46919 36.3565 8.81821 35.8247 9.26239 35.3784C9.70656 34.9321 10.2367 34.5805 10.8206 34.3449C11.4046 34.1094 12.0303 33.9947 12.6598 34.0079C15.2673 34.0079 17.3848 35.8939 17.3848 38.6699C17.3848 41.7074 15.0488 43.4349 12.6368 43.4349C9.96331 43.4349 7.90831 41.5254 7.90831 38.7824ZM15.8498 38.9549C15.8498 36.5064 14.5658 34.4714 12.5803 34.4714C10.6713 34.4714 9.46031 36.0629 9.46031 38.4749C9.46031 40.9499 10.7308 42.9814 12.7163 42.9814C14.6418 42.9814 15.8498 41.3899 15.8498 38.9549ZM21.0808 43.3124H17.7388V43.2394L18.6188 42.5779V34.8749L17.7388 34.2129V34.1404H21.2758C23.6648 34.1404 24.9488 35.0074 24.9488 36.6254C24.9488 37.8494 24.0788 38.7199 22.8443 39.0739L25.1143 42.5149L26.3383 43.2399V43.3124H23.1853V43.2394L23.6153 42.7234L21.4483 39.2589H20.0748V42.5679L21.0678 43.2299L21.0808 43.3124ZM20.0883 34.6069V38.7924H21.1073C22.5763 38.7924 23.4698 38.2434 23.4698 36.6649C23.4698 35.1959 22.6593 34.6069 21.1898 34.6069H20.0883ZM28.7078 44.6954V44.6094C29.6508 44.1329 30.0313 43.4944 30.0313 42.1479V34.8679L29.1478 34.2064V34.1339H32.3573V34.2064L31.4738 34.8684V41.6514C31.4608 43.1764 30.6533 44.3284 28.7078 44.6954ZM34.0083 40.1294V34.8749L33.1283 34.2129V34.1404H36.4073V34.2129L35.4643 34.8749V40.1889C35.4643 42.4554 36.7018 42.9189 38.0123 42.9189C38.9783 42.9189 40.5598 42.6274 40.5598 40.2519V34.9379L39.5673 34.2029V34.1304H42.0423V34.2034L41.1223 34.9244V40.1159C41.1223 42.3559 39.9843 43.4249 37.6578 43.4249C35.8678 43.4349 34.0083 42.7499 34.0083 40.1294ZM42.6508 43.2264V40.9099H42.7138L44.2558 42.7329C44.6665 42.8934 45.102 42.9807 45.5428 42.9909C46.8133 42.9909 47.5278 42.3294 47.5278 41.4124C47.5278 40.5789 46.8663 40.0029 45.2383 39.1459C43.3128 38.1204 42.6508 37.3794 42.6508 36.2974C42.6508 34.8379 44.0708 34.0174 45.5893 34.0174C46.4509 34.0208 47.3108 34.0948 48.1603 34.2389V36.4924H48.1103L46.5323 34.6064C46.1849 34.5143 45.8267 34.4687 45.4673 34.4709C44.5603 34.4709 43.8883 34.9509 43.8883 35.7944C43.8883 36.4559 44.2788 37.0084 45.9698 37.9249C47.9548 38.9904 48.7723 39.7119 48.7723 40.8039C48.7723 42.7129 47.0718 43.4509 45.3443 43.4509C44.5503 43.4344 43.4123 43.3124 42.6508 43.2264ZM54.8573 43.3124H51.6378V43.2394L52.5178 42.5779V34.6069H50.8898L49.4343 36.4434H49.3713V34.1269H57.1108V36.4434H57.0608L55.5918 34.6069H53.9768V42.5779L54.8573 43.2394V43.3124ZM57.9178 34.2034V34.1304H61.1378V34.2034L60.2573 34.8649V42.5679L61.1373 43.2299V43.3024H57.9178V43.2299L58.7978 42.5679V34.8749L57.9178 34.2034ZM66.6603 43.4349C64.0753 43.4349 61.7133 41.7209 61.7133 38.6599C61.7133 35.5999 64.4893 34.0079 66.8053 34.0079C67.8198 33.9887 68.8265 34.1884 69.7568 34.5934V36.6284H69.7073L67.8843 34.6434C67.5067 34.5285 67.114 34.4705 66.7193 34.4714C64.7343 34.4714 63.2553 36.0764 63.2553 38.5974C63.2553 40.9599 64.5288 42.9814 66.7558 42.9814C67.1427 42.9774 67.5283 42.9364 67.9073 42.8589L69.7803 40.8009H69.8298V42.8589C68.8255 43.2719 67.7452 43.4682 66.6598 43.4349H66.6603ZM70.8323 43.2399L71.7158 42.5779V34.8749L70.8323 34.2129V34.1404H77.7808V36.4304H77.7248L76.2323 34.6404H73.1583V38.4254H76.0008L76.9308 37.3599H76.9803V40.1029H76.9303L76.0003 38.9149H73.1583V42.8324H76.3413L77.8468 41.0194H77.8968V43.3354H70.8323V43.2399Z" fill="#ED1C24"/>
<path d="M7.2465 28.0849C3.4615 28.0849 0 25.5744 0 21.0899C0 16.5539 4.07 14.2774 7.458 14.2774C8.94464 14.2508 10.4196 14.5441 11.783 15.1374V18.1159H11.71L9.0365 15.2109C8.48395 15.0441 7.90968 14.9604 7.3325 14.9624C4.4275 14.9624 2.26 17.3119 2.26 21.0044C2.26 24.4654 4.123 27.4234 7.3885 27.4234C7.95448 27.4191 8.51868 27.3593 9.073 27.2449L11.816 24.2339H11.8885V27.2479C10.4172 27.8501 8.83548 28.1354 7.2465 28.0854V28.0849ZM13.7185 27.7839L15.0085 26.8179V15.5414L13.7185 14.5489V14.4429H23.903V17.8079H23.833L21.643 15.1909H17.143V20.7329H21.3055L22.6655 19.1809H22.738V23.1879H22.6655L21.3055 21.4509H17.143V27.1884H21.805L24.012 24.5414H24.085V27.9064H13.7185V27.7839ZM29.839 27.9064H26.004V27.7839L27.43 26.7389V15.9974L25.663 14.5484V14.4424H28.7535L36.4105 23.9124L36.844 24.5739V15.6209L35.2555 14.5489V14.4429H39.226V14.5489L37.6645 15.6274V27.9064H37.055V27.8864L28.2275 17.0209V26.7389L29.839 27.7844V27.9064ZM48.5075 27.9064H43.7925V27.7839L45.0825 26.8179V15.1544H42.6975L40.5625 17.8574H40.4735V14.4559H51.8095V17.8574H51.737L49.5995 15.1544H47.217V26.8314L48.507 27.7839L48.5075 27.9064ZM53.3515 27.7839L54.6415 26.8179V15.5414L53.3515 14.5489V14.4429H63.5365V17.8079H63.4665L61.2765 15.1909H56.7765V20.7329H60.9355L62.2985 19.1809H62.3715V23.1879H62.2985L60.9355 21.4509H56.776V27.1884H61.438L63.645 24.5414H63.715V27.9064H53.3515V27.7839ZM70.1735 27.9064H65.2765V27.7839L66.5665 26.8179V15.5414L65.2765 14.5489V14.4429H70.445C73.9425 14.4429 75.825 15.7169 75.825 18.0829C75.825 19.8759 74.5545 21.1499 72.741 21.6694L76.05 26.7254L77.8435 27.7839V27.8934H73.2575V27.7839L73.886 27.0329L70.7095 21.9574H68.701V26.8314L70.1735 27.7839V27.9064ZM68.701 15.1544V21.2889H70.19C72.341 21.2889 73.651 20.4814 73.651 18.1689C73.651 16.0144 72.4665 15.1539 70.316 15.1539L68.701 15.1544Z" fill="black"/>
<path d="M0.400391 30.6129H77.8534V31.3439H0.400391V30.6129Z" fill="#ED1C24"/>
</g>
<defs>
<clipPath id="clip0_40_122">
<rect width="78" height="45" fill="white"/>
</clipPath>
</defs>
</svg>
