<svg width="102" height="40" viewBox="0 0 102 40" fill="none" xmlns="http://www.w3.org/2000/svg">
<path d="M65.7109 37.648H67.1536V33.6212H67.1893L68.7659 37.648H69.7039L71.2805 33.6212H71.3163V37.648H72.7589V31.2061H70.8652L69.2483 35.4159H69.2215L67.6047 31.2061H65.7109V37.648Z" fill="#035BA1"/>
<path d="M60.3691 37.648H64.7864V36.3311H62.0083V35.0275H64.6211V33.7953H62.0083V32.523H64.7864V31.2061H60.3691V37.648Z" fill="#035BA1"/>
<path d="M56.2644 37.648H57.8991V32.523H59.6768V31.2061H54.4868V32.523H56.2644V37.648Z" fill="#035BA1"/>
<path d="M51.472 37.7641C53.1782 37.7641 54.1876 36.9472 54.1876 35.6615V35.657C54.1876 34.6257 53.5534 34.0722 52.1867 33.8088L51.5256 33.6838C50.8334 33.5543 50.5296 33.3713 50.5296 33.0231V33.0186C50.5296 32.6481 50.8691 32.3757 51.472 32.3757C52.0616 32.3757 52.477 32.6391 52.5261 33.0632L52.5306 33.1123H54.0536L54.0492 33.0186C53.9911 31.849 53.0755 31.09 51.4586 31.09C49.9803 31.09 48.9039 31.8891 48.9039 33.1302V33.1347C48.9039 34.1213 49.5783 34.7507 50.8557 34.9873L51.5167 35.1123C52.2715 35.2597 52.5574 35.4293 52.5574 35.7954V35.7998C52.5574 36.2016 52.1554 36.4784 51.5033 36.4784C50.8735 36.4784 50.3912 36.2061 50.3108 35.7909L50.3018 35.7418H48.7788L48.7833 35.8222C48.8547 37.0543 49.8686 37.7641 51.472 37.7641Z" fill="#035BA1"/>
<path d="M44.9644 37.648H46.6036V35.4337L48.8234 31.2061H47.0815L45.7996 33.8846H45.7684L44.4865 31.2061H42.7446L44.9644 35.4337V37.648Z" fill="#035BA1"/>
<path d="M40.0472 37.7641C41.7534 37.7641 42.7628 36.9472 42.7628 35.6615V35.657C42.7628 34.6257 42.1286 34.0722 40.7619 33.8088L40.1008 33.6838C39.4085 33.5543 39.1048 33.3713 39.1048 33.0231V33.0186C39.1048 32.6481 39.4443 32.3757 40.0472 32.3757C40.6368 32.3757 41.0522 32.6391 41.1013 33.0632L41.1058 33.1123H42.6288L42.6243 33.0186C42.5663 31.849 41.6507 31.09 40.0338 31.09C38.5555 31.09 37.4791 31.8891 37.4791 33.1302V33.1347C37.4791 34.1213 38.1535 34.7507 39.4309 34.9873L40.0919 35.1123C40.8467 35.2597 41.1326 35.4293 41.1326 35.7954V35.7998C41.1326 36.2016 40.7306 36.4784 40.0785 36.4784C39.4487 36.4784 38.9664 36.2061 38.886 35.7909L38.877 35.7418H37.354L37.3585 35.8222C37.4299 37.0543 38.4438 37.7641 40.0472 37.7641Z" fill="#035BA1"/>
<path d="M29.1758 37.648H30.8105V33.8891H30.8417L33.4323 37.648H34.8079V31.2061H33.1732V34.9248H33.1419L30.5648 31.2061H29.1758V37.648Z" fill="#035BA1"/>
<path d="M25.4375 37.7641C27.2732 37.7641 28.363 36.6882 28.363 34.9248V34.1168H25.4911V35.2775H26.7819L26.7774 35.3579C26.7238 36.0052 26.2146 36.407 25.4732 36.407C24.5308 36.407 23.9234 35.6748 23.9234 34.3981V34.3936C23.9234 33.1436 24.4727 32.4472 25.4017 32.4472C26.0315 32.4472 26.4915 32.7552 26.6613 33.2775L26.6747 33.3222H28.296L28.287 33.2686C28.1173 32.0186 26.9784 31.09 25.3973 31.09C23.4544 31.09 22.2529 32.3222 22.2529 34.4115V34.4159C22.2529 36.5365 23.4499 37.7641 25.4375 37.7641Z" fill="#035BA1"/>
<path d="M19.8145 37.648H21.4536V31.2061H19.8145V37.648Z" fill="#035BA1"/>
<path d="M16.3397 37.7641C18.0459 37.7641 19.0553 36.9472 19.0553 35.6615V35.657C19.0553 34.6257 18.4211 34.0722 17.0543 33.8088L16.3933 33.6838C15.701 33.5543 15.3973 33.3713 15.3973 33.0231V33.0186C15.3973 32.6481 15.7368 32.3757 16.3397 32.3757C16.9293 32.3757 17.3447 32.6391 17.3938 33.0632L17.3983 33.1123H18.9213L18.9168 33.0186C18.8588 31.849 17.9432 31.09 16.3263 31.09C14.8479 31.09 13.7715 31.8891 13.7715 33.1302V33.1347C13.7715 34.1213 14.446 34.7507 15.7234 34.9873L16.3844 35.1123C17.1392 35.2597 17.4251 35.4293 17.4251 35.7954V35.7998C17.4251 36.2016 17.0231 36.4784 16.371 36.4784C15.7412 36.4784 15.2589 36.2061 15.1785 35.7909L15.1695 35.7418H13.6465L13.651 35.8222C13.7224 37.0543 14.7363 37.7641 16.3397 37.7641Z" fill="#035BA1"/>
<path d="M8.51465 37.648H12.9319V36.3311H10.1538V35.0275H12.7667V33.7953H10.1538V32.523H12.9319V31.2061H8.51465V37.648Z" fill="#035BA1"/>
<path d="M2.01123 37.648H4.62854C6.57142 37.648 7.71928 36.4471 7.71928 34.3891V34.3802C7.71928 32.3311 6.57142 31.2061 4.62854 31.2061H2.01123V37.648ZM3.6504 36.3266V32.5275H4.41415C5.44589 32.5275 6.05332 33.1793 6.05332 34.3846V34.3936C6.05332 35.6793 5.48162 36.3266 4.41415 36.3266H3.6504Z" fill="#035BA1"/>
<path d="M54.3281 0.355103C54.1301 0.355103 53.8132 0.381407 53.7076 0.644435C52.493 5.32633 51.0276 13.546 50.4071 18.9643C50.3411 18.9643 50.2883 18.9643 50.2487 18.9643C50.2487 18.9643 49.5357 22.1207 48.1759 22.1207C47.1726 22.1207 46.8821 20.7003 46.9481 19.7403C47.0141 17.4914 48.3343 10.9814 48.4664 9.62684C48.4928 9.07448 46.7897 8.07498 45.5883 8.07498C45.0734 8.07498 44.6773 8.20649 44.6509 8.49582C44.0964 11.7179 41.9709 18.7671 39.8321 21.5946L39.4097 21.4631C39.1852 18.241 40.4394 13.1909 41.6408 9.48218C41.3768 9.06134 40.215 8.41692 38.8948 8.41692C37.3765 8.41692 35.3698 16.7286 35.3698 20.4899C35.3698 20.7529 35.4094 21.0028 35.4754 21.2658C35.1058 22.1075 34.5381 23.0018 33.8251 23.0018C32.9802 23.0018 32.5973 22.2653 32.5973 20.7135C32.5973 17.3599 34.406 12.4675 34.8549 9.21915C34.9869 8.19334 32.9538 7.28589 31.3695 7.28589C30.8811 7.28589 30.3398 7.41741 30.2078 7.66728C28.4255 10.9157 27.3693 14.7822 26.1415 18.1358H26.0095C26.1415 15.7554 26.6828 12.4018 26.9204 10.2844C27.0524 9.32436 25.4022 8.50897 23.7255 8.50897C23.369 8.50897 22.7881 8.57473 22.6561 8.82461C21.6527 11.0735 20.5174 14.4929 19.2631 17.807H19.1311C19.1971 15.8738 20.1609 12.0072 20.8738 9.04818C21.0058 8.53528 19.4216 7.73304 18.1278 7.73304C17.2696 7.73304 15.6326 14.4008 15.3553 19.7929C13.3222 19.7666 10.1536 20.3058 6.03457 21.279C6.2326 19.0301 6.45704 16.8733 6.77389 14.7822C8.6486 14.4929 10.8138 14.2035 12.6621 14.1641C13.2166 14.1641 13.243 13.7169 13.243 13.4934C13.243 13.2303 12.5696 12.2045 11.9888 11.6522C11.6059 11.2971 10.4705 11.4286 8.95225 11.5206L7.34158 11.6785C7.69804 9.74521 8.14692 7.81195 8.6618 5.91815C10.4441 5.62882 11.9227 5.40524 13.6654 5.27373C13.6654 5.27373 13.4014 5.89184 13.4014 6.27323C13.375 6.62832 14.4047 6.56257 15.2101 6.20748C15.5929 5.9839 17.6921 4.53725 17.6921 4.31368C17.6921 4.05065 16.9792 2.57769 16.8207 2.41987C15.9758 1.61764 14.682 1.90697 13.4938 2.03848C12.6225 2.13054 11.2626 2.30151 9.67837 2.59084L9.90281 1.97273C9.2823 1.48613 7.80366 1.1968 6.66827 1.06528C6.28541 1.736 5.92895 2.51193 5.57249 3.37993C4.08064 3.73501 2.53599 4.15586 1.14976 4.60301C0.476449 4.82658 2.08712 7.18068 2.95846 7.02287C3.51295 6.93081 4.02783 6.79929 4.51631 6.70723C4.02783 8.50898 3.60537 10.4685 3.2225 12.4675C2.12672 12.7569 1.18937 13.0462 0.832908 13.2698C0.278417 13.6512 1.57223 15.7159 2.64161 15.5187H2.73402C2.37756 17.8728 2.08712 20.1874 1.92869 22.2785L0.186003 22.7256C-0.526915 22.9229 0.964931 25.3296 2.03431 25.1455L2.23234 25.0797C3.30172 25.5926 5.6517 26.4343 5.71771 25.6979L5.78372 24.409C9.77078 23.6462 12.8865 23.1333 15.5137 22.9624C15.923 24.5537 16.9528 25.448 18.5238 25.448C19.3292 25.448 19.9761 24.9351 19.9761 24.9351C20.0421 22.1338 21.5603 17.5966 22.5637 14.9269H22.8277C22.5637 17.3073 22.3789 20.2006 22.3393 22.6862C22.3128 24.9745 23.1182 26.3949 25.2173 26.3949C26.0887 26.3949 26.7092 25.9477 26.7092 25.9477C26.7752 23.1465 28.2934 17.544 29.6137 14.8743H29.9701C29.6137 16.4261 29.0064 19.5035 28.9667 20.7924C28.8743 23.3964 29.8117 25.619 32.9142 25.619C34.8021 25.619 36.1091 24.5931 36.822 23.449C37.7198 24.3564 38.8816 24.9745 39.8321 24.9745C41.7068 24.9745 43.1327 21.7261 43.6476 20.24L43.9116 20.2663C43.7796 22.1075 44.2285 24.6063 47.3046 24.6063C48.3343 24.6063 49.2717 24.1591 50.0242 23.5279C50.011 23.9224 50.0374 24.2381 50.143 24.4222C50.3411 24.9745 53.602 26.2897 54.0509 25.7373C54.0773 24.8693 54.1829 24.0013 54.2489 23.1333C54.8034 16.1105 56.15 8.772 57.6155 1.98588C57.7211 1.42037 55.2919 0.355103 54.3281 0.355103Z" fill="#035BA1"/>
<path d="M65.0879 12.5596C66.1177 12.5596 68.5469 10.7841 68.5469 9.56107C68.5469 8.9824 67.3851 7.40424 66.9891 7.40424C66.3686 7.40424 56.7178 9.8504 56.5461 11.205C56.4537 12.0467 57.0346 13.8484 57.5495 14.2956C59.7807 14.5849 63.1736 16.8732 63.1736 19.9638C63.1736 21.9891 62.2363 23.37 60.388 23.37C58.7113 23.37 58.2492 22.0154 58.2888 21.7261C58.2888 21.4631 59.7147 18.9906 59.7411 18.0174C59.7411 17.7544 58.5397 16.6628 57.4175 16.6628C55.9652 16.6628 54.9883 18.9775 54.9883 20.4899C54.9883 23.0281 58.3812 26.2502 61.8138 26.2502C64.6259 26.2502 67.1079 24.8693 67.1079 21.1606C67.1079 15.5581 60.52 13.0199 60.52 13.0199L60.4936 12.8884C60.784 12.6253 63.0812 11.6916 64.1506 11.6653C64.5731 11.6916 64.6655 12.5596 65.0879 12.5596Z" fill="#035BA1"/>
<path d="M73.0354 6.57572C75.9135 6.57572 76.8508 4.48464 76.8508 3.35362C76.8508 2.39357 76.1775 1.99903 75.491 1.7097C75.8079 0.578679 75.1346 0.355103 73.9992 0.355103C71.702 0.355103 71.1211 3.35362 71.1211 4.31368C71.1343 5.9313 72.3225 6.57572 73.0354 6.57572Z" fill="#035BA1"/>
<path d="M95.7302 7.9566C94.7928 7.9566 93.6574 16.4919 93.367 17.6755C93.0105 19.0301 91.7167 21.9891 90.7529 21.9891C90.1985 21.9891 90.106 21.2527 90.106 20.4373C90.2381 16.7943 91.3602 13.0593 92.4692 9.56107C92.4032 8.78513 91.083 8.07496 89.9212 8.07496C89.8288 8.07496 89.7496 8.07496 89.6572 8.08811C89.3535 7.69357 88.9706 7.40424 88.5218 7.40424C87.36 7.40424 85.4457 7.85139 82.6732 8.24593C83.1881 6.1154 84.0594 3.28785 84.0594 1.70968C84.0594 0.578662 82.9241 0 81.1814 0C80.5345 0 80.0856 0.131514 80.0856 0.131514C79.7687 1.68338 78.9898 5.86552 78.4353 8.66677C75.3328 9.21913 75.4912 9.15337 75.4912 9.8241C75.4912 10.4422 75.9401 11.5601 76.4946 11.9809L77.63 12.8884C77.4319 14.3087 76.9303 16.3472 76.4418 18.767C76.0325 18.6881 75.7025 18.7144 75.7025 18.7144C75.61 19.9375 74.8575 23.1859 73.0488 23.1859C72.5603 23.1859 72.1775 22.673 72.2039 21.542C72.2303 19.1879 73.7881 13.3618 74.6595 10.3765C75.0424 9.06132 71.6494 8.57471 71.2005 8.57471C70.9101 8.57471 70.58 8.64047 70.4612 8.99556C69.6559 11.2839 67.8472 18.4646 67.8472 21.5157C67.8472 24.3827 69.2994 25.7636 71.755 25.7636C73.2865 25.7636 74.5671 25.1981 75.5572 24.3695C75.4516 25.2507 75.3856 26.1055 75.3856 26.8552C75.3856 28.9462 76.257 30.4323 78.2637 30.4323C80.2704 30.4323 85.1816 26.2502 85.1816 19.5561C85.1816 15.8869 84.1783 13.9799 82.0131 11.731L82.0395 11.5732C83.8878 11.3102 85.9606 11.034 87.69 10.8368C86.7791 13.6249 86.119 16.8206 86.119 19.9375C86.119 21.8313 86.7395 24.5668 89.6704 24.5668C91.0566 24.5668 92.06 23.541 92.5749 22.5415C92.2844 24.9877 91.1886 29.1041 91.1886 30.3271C91.1886 30.84 91.281 30.9716 91.6111 31.1294C92.258 31.4187 94.0007 32.0368 94.5156 32.0368C94.872 32.0368 95.1361 32.0105 95.2285 31.3266C95.4529 28.2624 96.5223 21.6078 97.1296 18.3462C97.4861 16.0973 99.1363 12.4281 99.1363 9.3638C99.1231 8.66677 97.3144 7.9566 95.7302 7.9566ZM82.6072 20.5162C82.4752 25.4743 80.31 27.6969 79.8875 27.6969C79.5047 27.6969 79.3991 27.1839 79.4387 26.4738C79.4651 25.7373 79.5971 24.8035 79.7027 24.0276C80.2176 20.1611 80.9569 16.334 81.1946 14.5586C82.4752 16.2683 82.6732 18.6092 82.6072 20.5162Z" fill="#035BA1"/>
<path d="M99.3698 26.9863C100.512 26.9863 101.413 26.0536 101.413 24.9534V24.9422C101.413 23.8419 100.524 22.9204 99.381 22.9204C98.2384 22.9204 97.3379 23.8531 97.3379 24.9534V24.9645C97.3379 26.0648 98.2272 26.9863 99.3698 26.9863ZM99.3698 26.7629C98.3454 26.7629 97.5743 25.9531 97.5743 24.9645V24.9534C97.5743 23.9648 98.351 23.1438 99.381 23.1438C100.405 23.1438 101.177 23.9536 101.177 24.9422V24.9534C101.177 25.9419 100.4 26.7629 99.3698 26.7629ZM98.4805 25.9698H99.0827V25.3164H99.336H99.3473L99.7863 25.9698H100.479L99.9608 25.2214C100.231 25.1097 100.405 24.8919 100.405 24.5624V24.5512C100.405 24.3446 100.343 24.1826 100.22 24.0598C100.068 23.909 99.8313 23.8196 99.488 23.8196H98.4805V25.9698ZM99.0827 24.8528V24.3334H99.4711C99.6737 24.3334 99.8032 24.4172 99.8032 24.5903V24.6015C99.8032 24.7579 99.685 24.8528 99.4767 24.8528H99.0827Z" fill="#035BA1"/>
</svg>
