<svg width="144" height="36" viewBox="0 0 144 36" fill="none" xmlns="http://www.w3.org/2000/svg">
<g clip-path="url(#clip0_49_176)">
<path d="M58.1549 24.8523C58.1549 24.5455 57.9494 24.3409 57.5384 24.2386V24.0341C57.7439 24.0341 58.5145 24.0852 58.72 24.0852C58.8741 24.0852 59.6447 24.0341 59.8502 24.0341V24.2386C59.4906 24.3409 59.2851 24.5455 59.2851 24.8523V28.6875C59.2851 29.9148 59.9529 30.5795 61.34 30.5795C62.573 30.5795 63.4977 30.0171 63.4977 28.7386V24.8011C63.4977 24.4943 63.2922 24.2898 62.8812 24.1875V24.0341C63.0354 24.0341 63.6518 24.0852 63.8573 24.0852C64.0628 24.0852 64.6793 24.0341 64.8334 24.0341V24.2386C64.3711 24.3409 64.217 24.5455 64.217 24.8523V28.5852C64.217 30.2727 63.2409 31.2443 61.1345 31.2443C59.1823 31.2443 58.1549 30.375 58.1549 28.7898V24.8523ZM66.5801 30.9375C67.0425 30.8352 67.1966 30.6307 67.1966 30.3239V25.0057C67.1966 24.5455 66.9397 24.3409 66.5288 24.2386V24.0341H68.0186L72.6422 29.4545V24.8523C72.6422 24.5455 72.4367 24.3409 72.0257 24.2386V24.0341C72.1798 24.0341 72.7963 24.0852 73.0018 24.0852C73.2073 24.0852 73.8238 24.0341 73.9779 24.0341V24.2386C73.5156 24.3409 73.3101 24.5455 73.3101 24.8523V31.2443H73.0532C72.8991 31.1932 72.5395 31.0398 72.0257 30.4773L67.8645 25.6705V30.375C67.8645 30.6818 68.0186 30.8864 68.481 30.9886V31.1932C68.3268 31.1932 67.7103 31.1421 67.5049 31.1421C67.2994 31.1421 66.6829 31.1932 66.5288 31.1932L66.5801 30.9375ZM103.158 29.5057H103.364C103.466 29.9148 103.672 30.2727 104.031 30.4773C104.34 30.733 104.905 30.8352 105.316 30.8352C106.241 30.8352 106.857 30.375 106.857 29.6591C106.857 28.8921 106.086 28.5341 105.213 28.0739C104.545 27.7159 103.209 27.2046 103.209 25.9261C103.209 24.75 104.134 23.983 105.573 23.983C106.549 23.983 106.96 24.2386 107.628 24.1875V25.6193H107.422C107.165 24.75 106.395 24.4943 105.521 24.4943C104.545 24.4943 104.237 25.0568 104.237 25.5682C104.237 26.3352 105.008 26.7443 105.881 27.1534C106.857 27.5625 107.936 28.125 107.936 29.3523C107.936 30.5284 107.011 31.3466 105.367 31.3466C104.391 31.3466 103.775 31.0398 103.261 30.9886L103.158 29.5057ZM123.04 28.1761L121.139 25.1591C120.831 24.6477 120.574 24.3409 120.214 24.2386V24.0341C120.471 24.0341 121.19 24.0852 121.344 24.0852C121.55 24.0852 122.269 24.0341 122.577 24.0341V24.2386C122.32 24.2898 122.218 24.392 122.218 24.5966C122.218 24.75 122.32 24.9546 122.423 25.1591C122.526 25.3125 123.81 27.4602 123.81 27.4602L125.146 25.1591C125.3 24.9034 125.351 24.6989 125.351 24.5455C125.351 24.3921 125.249 24.2898 125.043 24.2898V24.0341C125.249 24.0341 125.762 24.0852 125.917 24.0852C126.071 24.0852 126.636 24.0341 126.841 24.0341V24.2386C126.328 24.4432 126.019 24.9034 125.711 25.4148L124.016 28.2784M124.118 27.9205V30.3239C124.118 30.5795 124.324 30.8864 124.735 30.9375V31.1421C124.529 31.1421 123.759 31.0909 123.553 31.0909C123.348 31.0909 122.629 31.1421 122.372 31.1421V30.9375C122.783 30.8352 122.988 30.5795 122.988 30.3239V28.0227M88.0029 24.0341H92.421C92.5751 24.0341 92.7806 24.0341 92.9347 23.9318H93.1403L93.0889 25.3636H92.8834C92.7293 24.9034 92.5238 24.5455 91.7018 24.5455H89.801V27.1023H91.2908C91.4963 27.1023 91.7532 27.1023 91.8559 27.0511C92.1642 27 92.3183 26.7955 92.421 26.4886H92.6265V28.2784H92.421C92.3183 27.9716 92.2155 27.7671 91.8559 27.7159C91.7532 27.6648 91.4963 27.6648 91.2908 27.6648H89.801V30.5795H91.9073C92.832 30.5795 93.0889 30.2216 93.2944 29.6591H93.4999L93.2944 31.1421C92.6265 31.0909 92.2155 31.0909 91.4449 31.0909H89.2359C89.0304 31.0909 88.2598 31.1421 88.0029 31.1421V30.9375C88.4139 30.8352 88.6194 30.6818 88.6194 30.2727V24.8523C88.6194 24.4943 88.4139 24.2898 88.0029 24.2386V24.0341ZM76.7007 24.9034C76.7007 24.5455 76.4952 24.3409 76.0842 24.2386V24.0341C76.3411 24.0341 77.0603 24.0852 77.3172 24.0852C77.5227 24.0852 78.2933 24.0341 78.5502 24.0341V24.2386C78.1392 24.3409 77.8823 24.4943 77.8823 24.9034V30.2727C77.8823 30.6307 78.0878 30.8352 78.5502 30.9375V31.1421C78.2933 31.1421 77.5741 31.0909 77.3172 31.0909C77.1117 31.0909 76.3411 31.1421 76.0842 31.1421V30.9375C76.5466 30.8352 76.7521 30.6818 76.7521 30.2727L76.7007 24.9034ZM110.248 24.9034C110.248 24.5455 110.042 24.3409 109.631 24.2386V24.0341C109.888 24.0341 110.659 24.0852 110.864 24.0852C111.07 24.0852 111.84 24.0341 112.097 24.0341V24.2386C111.686 24.3409 111.481 24.4943 111.481 24.9034V30.2727C111.481 30.6307 111.686 30.8352 112.097 30.9375V31.1421C111.84 31.1421 111.121 31.0909 110.864 31.0909C110.659 31.0909 109.888 31.1421 109.631 31.1421V30.9375C110.094 30.8352 110.248 30.6818 110.248 30.2727V24.9034ZM116.412 24.0852C113.998 24.0852 113.587 24.0341 113.125 23.983V25.4148H113.33C113.536 24.75 113.895 24.5966 114.358 24.5966H115.899V30.2216C115.899 30.5795 115.693 30.7841 115.231 30.8864V31.0909C115.488 31.0909 116.258 31.0398 116.464 31.0398C116.669 31.0398 117.44 31.0909 117.697 31.0909V30.8864C117.286 30.7841 117.029 30.5795 117.029 30.2216V24.5966H118.519C118.981 24.5966 119.341 24.75 119.546 25.4148H119.752V23.983C119.187 24.0341 118.827 24.0852 116.412 24.0852ZM97.0446 30.2727C97.0446 30.6307 97.2501 30.8352 97.7125 30.9375V31.1421C97.4556 31.1421 96.685 31.0909 96.4795 31.0909C96.274 31.0909 95.5548 31.1421 95.2979 31.1421V30.9375C95.7089 30.8352 95.9144 30.6818 95.9144 30.2727V24.8523C95.9144 24.4943 95.7089 24.2898 95.2979 24.2386V24.0341C95.5548 24.0341 96.274 24.0852 96.4795 24.0852C96.8391 24.0852 97.8152 24.0341 98.2262 24.0341C99.9216 24.0341 100.846 24.75 100.846 25.9261C100.846 26.8466 100.127 27.5114 99.0482 27.767C99.0482 27.767 99.3051 27.9205 99.5619 28.1761C99.8702 28.5341 100.692 29.6591 101 30.0682C101.309 30.4773 101.771 30.9375 102.233 30.9375V31.0909C102.028 31.142 101.668 31.1932 101.411 31.1932C100.846 31.1932 100.384 30.9886 99.9216 30.4773C99.5106 30.017 98.8941 29.0455 98.4831 28.5341C98.2262 28.2273 97.918 27.9716 97.4043 27.8693C97.3015 27.8693 97.1988 27.8182 97.096 27.8182L97.0446 30.2727ZM97.0446 27.4091C97.2501 27.4602 97.6097 27.4602 97.918 27.4602C99.2537 27.4602 99.6647 26.6932 99.6647 26.0284C99.6647 25.0568 99.0482 24.4943 97.8666 24.4943C97.6097 24.4943 97.3015 24.5455 97.0446 24.5966V27.4091ZM80.1941 24.9034C80.04 24.5455 79.7831 24.2898 79.3721 24.2386V24.0341C79.629 24.0341 80.5024 24.0852 80.7079 24.0852C80.862 24.0852 81.6326 24.0341 81.8894 24.0341V24.2386C81.6839 24.2898 81.3757 24.3921 81.3757 24.6477C81.3757 24.8011 81.4785 25.0568 81.684 25.4659L83.5334 29.608L85.2801 25.4659C85.4342 25.108 85.537 24.8523 85.537 24.6989C85.537 24.4943 85.3315 24.3409 85.0232 24.2898V24.0341C85.2287 24.0341 85.7938 24.0852 85.9993 24.0852C86.1534 24.0852 86.8213 24.0341 87.0782 24.0341V24.2386C86.6672 24.3409 86.3589 24.5966 86.1534 25.1591L83.5848 31.1421H83.0197L80.1941 24.9034ZM86.7699 6.0341C86.4617 5.36932 85.9993 4.9091 85.2801 4.75569V4.39773C85.7425 4.39773 87.335 4.44887 87.6947 4.44887C88.0029 4.44887 89.5441 4.39773 90.0578 4.39773V4.75569C89.6469 4.85796 89.1331 5.06251 89.1331 5.52273C89.1331 5.82955 89.3386 6.28978 89.6982 7.05682L93.1916 14.9318L96.4795 7.05682C96.7364 6.44319 96.9419 5.93182 96.9419 5.57387C96.9419 5.16478 96.5309 4.85796 96.0172 4.75569V4.39773C96.4795 4.39773 97.507 4.44887 97.8666 4.44887C98.1749 4.44887 99.4078 4.39773 99.9216 4.39773V4.75569C99.0996 4.96023 98.5858 5.4716 98.1235 6.49432L93.2944 17.8466H92.2155L86.7699 6.0341ZM40.02 17.3864C40.6365 17.233 41.0989 16.9773 41.0989 16.2614V5.88069C41.0989 5.21591 40.6879 4.9091 40.02 4.75569V4.3466C40.3283 4.3466 41.7667 4.39773 42.1263 4.39773C42.5373 4.39773 44.0272 4.3466 44.3354 4.3466V4.70455C43.7189 4.85796 43.2565 5.11364 43.2565 5.82955V10.2273H51.0653V5.88069C51.0653 5.16478 50.6543 4.85796 49.9865 4.75569V4.3466C50.2947 4.3466 51.7846 4.39773 52.1955 4.39773C52.5552 4.39773 53.9936 4.3466 54.3532 4.3466V4.70455C53.7368 4.85796 53.2744 5.11364 53.2744 5.82955V16.2102C53.2744 16.875 53.6854 17.1818 54.3532 17.3352V17.6932C54.045 17.6932 52.5552 17.6421 52.1955 17.6421C51.7846 17.6421 50.3461 17.6932 49.9865 17.6932V17.3864C50.603 17.233 51.0653 16.9773 51.0653 16.2614V11.3523H43.2565V16.2614C43.2565 16.9773 43.6675 17.233 44.3354 17.3864V17.7443C44.0272 17.7443 42.4859 17.6932 42.1263 17.6932C41.7667 17.6932 40.3796 17.7443 40.02 17.7443V17.3864ZM130.026 17.3864C130.848 17.233 131.259 16.9261 131.259 16.2102V5.88069C131.259 5.16478 130.797 4.85796 130.026 4.75569V4.3466C130.489 4.3466 131.927 4.39773 132.338 4.39773C133.006 4.39773 134.804 4.24432 136.243 4.24432C141.02 4.24432 143.949 6.90341 143.949 10.9432C143.949 14.8807 140.918 17.7955 135.986 17.7955C134.547 17.7955 132.903 17.6932 132.236 17.6932C131.825 17.6932 130.489 17.7443 130.026 17.7443V17.3864ZM133.417 16.7216C133.931 16.8239 134.804 16.875 135.523 16.875C139.531 16.875 141.637 14.4716 141.637 11.0966C141.637 7.61932 139.428 5.16478 135.678 5.16478C134.907 5.16478 133.931 5.21591 133.417 5.31819V16.7216ZM75.8274 16.1591C75.8274 16.8239 76.2897 17.233 77.0603 17.3864V17.7443C76.598 17.7443 75.1595 17.6932 74.6971 17.6932C74.3375 17.6932 72.8991 17.7443 72.4367 17.7443V17.3864C73.2073 17.233 73.6183 16.875 73.6183 16.1591V5.93182C73.6183 5.31819 73.2587 4.9091 72.4367 4.75569V4.3466C72.8991 4.3466 74.2862 4.39773 74.6971 4.39773C75.365 4.39773 77.2145 4.29546 77.9851 4.29546C81.2216 4.29546 83.0197 5.62501 83.0197 7.87501C83.0197 9.66478 81.684 10.8409 79.629 11.3523C79.629 11.3523 80.0914 11.608 80.5537 12.1705C81.1188 12.8352 82.7114 15.0852 83.3279 15.8523C83.9444 16.6193 84.7664 17.4886 85.6397 17.4886V17.7955C85.2287 17.8977 84.5609 17.9489 84.0471 17.9489C82.9683 17.9489 82.0949 17.5398 81.2216 16.5171C80.5024 15.6477 79.218 13.7557 78.4988 12.8352C78.0364 12.2216 77.4713 11.7614 76.4439 11.608C76.2384 11.5568 76.0329 11.5568 75.8274 11.5057V16.1591ZM75.8274 10.7386C76.2384 10.7898 76.9062 10.8409 77.5227 10.8409C80.04 10.8409 80.8106 9.4091 80.8106 8.13069C80.8106 6.34091 79.5776 5.21591 77.4199 5.21591C76.9576 5.21591 76.2897 5.26705 75.8274 5.36932V10.7386ZM118.262 16.1591C118.262 16.8239 118.724 17.233 119.495 17.3864V17.7443C119.033 17.7443 117.594 17.6932 117.183 17.6932C116.823 17.6932 115.385 17.7443 114.923 17.7443V17.3864C115.693 17.233 116.104 16.875 116.104 16.1591V5.93182C116.104 5.31819 115.745 4.9091 114.923 4.75569V4.3466C115.385 4.3466 116.772 4.39773 117.183 4.39773C117.851 4.39773 119.7 4.29546 120.42 4.29546C123.656 4.29546 125.454 5.62501 125.454 7.87501C125.454 9.66478 124.118 10.8409 122.064 11.3523C122.064 11.3523 122.526 11.608 122.988 12.1705C123.553 12.8352 125.146 15.0852 125.762 15.8523C126.379 16.6193 127.201 17.4886 128.074 17.4886V17.7955C127.663 17.8977 126.995 17.9489 126.482 17.9489C125.403 17.9489 124.529 17.5398 123.656 16.5171C122.937 15.6477 121.653 13.7557 120.933 12.8352C120.471 12.2216 119.906 11.7614 118.878 11.608C118.673 11.5568 118.467 11.5568 118.262 11.5057V16.1591ZM118.262 10.7386C118.673 10.7898 119.341 10.8409 119.957 10.8409C122.475 10.8409 123.245 9.4091 123.245 8.13069C123.245 6.34091 122.012 5.21591 119.854 5.21591C119.392 5.21591 118.724 5.26705 118.262 5.36932V10.7386ZM56.3054 17.3864C57.1788 17.1818 57.6411 16.6193 57.9494 15.9034L62.2648 5.57387C62.4702 5.16478 62.6757 4.29546 62.6757 4.29546H63.9087C63.9087 4.29546 64.1142 5.16478 64.3197 5.62501L68.8919 15.9546C69.2002 16.6705 69.5598 17.1818 70.4845 17.3864V17.7443C69.9708 17.7443 68.481 17.6932 68.1213 17.6932C67.7617 17.6932 66.3233 17.7443 65.8095 17.7443V17.3864C66.4774 17.233 66.6829 16.875 66.6829 16.5682C66.6829 16.3125 66.5801 15.9546 66.426 15.6477L65.4499 13.4489H60.4153L59.542 15.6989C59.4392 15.9546 59.3365 16.3125 59.3365 16.5682C59.3365 16.9261 59.542 17.233 60.2612 17.4375V17.7955C59.7988 17.7955 58.6172 17.7443 58.3604 17.7443L56.4082 17.7955L56.3054 17.3864ZM64.8848 12.375L62.7271 7.41478L60.7235 12.375H64.8848ZM99.0482 17.3864C99.9216 17.1818 100.384 16.6193 100.692 15.9034L105.008 5.57387C105.213 5.16478 105.419 4.29546 105.419 4.29546H106.651C106.651 4.29546 106.857 5.16478 107.062 5.62501L111.635 15.9546C111.943 16.6705 112.303 17.1818 113.227 17.3864V17.7443C112.714 17.7443 111.224 17.6932 110.864 17.6932C110.505 17.6932 109.066 17.7443 108.552 17.7443V17.3864C109.22 17.233 109.426 16.875 109.426 16.5682C109.426 16.3125 109.323 15.9546 109.169 15.6477L108.193 13.4489H103.158L102.285 15.6989C102.182 15.9546 102.079 16.3125 102.079 16.5682C102.079 16.9261 102.285 17.233 103.004 17.4375V17.7955C102.542 17.7955 101.36 17.7443 101.103 17.7443L99.151 17.7955V17.3864H99.0482ZM107.576 12.375L105.419 7.41478L103.415 12.375H107.576Z" fill="#1E1E1E"/>
<path d="M0.205566 0.204529H30.2591V11.5057C30.2591 16.6704 28.3069 27.6648 15.3608 35.8466C15.3608 35.8466 1.28441 30.017 0.205566 11.5057V0.204529Z" fill="#A51C30"/>
<path d="M15.3093 36L15.2066 35.9489C15.1038 35.8977 1.07884 29.8636 0 11.5057V0H30.4131V11.4545C30.4131 15.9545 28.9747 27.4091 15.4121 35.8977L15.3093 36ZM0.359615 0.357955V11.4545C1.38709 28.8409 14.1277 35.0795 15.3093 35.5909C28.6151 27.1534 30.0535 15.9034 30.0535 11.4545V0.357955H0.359615Z" fill="#1E1E1E"/>
<path d="M22.964 14.7273C22.964 14.7273 22.7071 15.5966 21.5256 14.7273L17.4157 14.625C17.4157 14.625 16.9019 14.7784 16.7992 14.2159C16.7992 14.2159 16.9019 13.0909 16.8506 12.9886C16.8506 12.9886 16.8506 12.6818 16.3368 12.6818C16.3368 12.6818 15.5148 12.7841 15.4635 12.0682C15.4635 12.0682 15.3094 11.3011 16.4396 11.3011C16.4396 11.3011 16.7992 11.4545 16.8506 10.9943C16.8506 10.9943 16.7992 7.82385 16.8506 7.61931C16.8506 7.61931 16.9533 7.31249 16.3882 7.26135C16.3882 7.26135 15.5662 7.41476 15.4635 6.9034C15.4635 6.9034 15.4121 6.08522 15.9772 6.03408C15.9772 6.03408 16.6451 6.08522 16.7478 5.93181C16.7478 5.93181 16.9019 6.03408 16.8506 5.47158V4.44885C16.8506 4.44885 16.9019 4.19317 17.3643 4.19317C17.3643 4.19317 18.1349 4.24431 18.2376 4.19317C18.2376 4.19317 18.3918 3.98863 18.4431 3.88635C18.4431 3.88635 18.8541 3.88635 18.9055 3.93749C18.9055 3.93749 19.4706 4.34658 21.731 4.19317C21.731 4.19317 22.0907 4.19317 22.142 4.29544C22.142 4.29544 22.553 4.60226 22.8099 4.29544C22.8099 4.29544 23.1695 4.24431 24.2484 4.24431C24.2484 4.24431 25.4299 4.55113 26.2519 3.88635L26.5088 3.93749C26.5088 3.93749 26.8684 4.49999 27.0739 4.34658C27.0739 4.34658 27.7931 4.29544 27.9472 4.39772C27.9472 4.39772 28.2041 4.75567 28.05 5.72726C28.05 5.72726 27.8959 6.13635 28.6151 6.13635C28.6151 6.13635 29.4371 5.98294 29.3343 6.74999C29.3343 6.74999 29.5398 7.61931 28.2041 7.4659C28.2041 7.4659 28.05 7.72158 28.05 7.87499C28.05 7.87499 27.9986 10.6364 27.9986 10.9432C27.9986 10.9432 27.9472 11.3523 28.5637 11.3523C28.5637 11.3523 29.3343 11.3011 29.3857 12.017C29.3857 12.017 29.4884 12.9375 28.3582 12.7841C28.3582 12.7841 27.9986 12.8352 27.9472 13.0398L27.8959 14.267C27.8959 14.267 27.9472 14.8807 27.228 14.7273C27.1253 14.7273 23.4264 14.7784 23.1181 14.7273C23.1695 14.625 23.0154 14.625 22.964 14.7273ZM15.1039 18.767C15.1039 18.767 15.258 18.7159 15.3094 18.5625C15.3094 18.5625 15.8231 18.5114 15.8745 18.4602L17.467 18.5625C17.467 18.5625 19.0596 18.6648 19.7275 18.2045C19.7275 18.2045 19.9843 18.2045 20.1385 18.2557C20.1385 18.2557 20.4981 18.3068 20.5495 18.4602H21.4742C21.4742 18.4602 21.9879 18.6136 21.9879 18.9716V19.4318C21.9879 19.4318 21.8852 20.3011 22.142 20.3523H22.8613C22.8613 20.3523 23.4264 20.6079 23.375 20.9659C23.375 20.9659 23.375 21.4773 22.8613 21.5284C22.8613 21.5284 22.3475 21.6818 22.1934 21.6307C22.1934 21.6307 22.0393 21.8352 21.9879 22.142L21.9365 25.3125C21.9365 25.3125 21.8852 25.6704 22.3989 25.6193C22.3989 25.6193 23.1695 25.5682 23.375 25.9773C23.375 25.9773 23.5805 26.6932 23.1695 26.7954L22.8613 26.9489L22.2448 27.0511C22.2448 27.0511 21.9879 27.1023 21.9365 27.5114V28.3807C21.9365 28.3807 21.9365 28.9432 21.5256 28.9432L20.8577 28.9943C20.8577 28.9943 20.7036 29.1477 20.344 29.0454C20.344 29.0454 16.1827 29.0966 16.08 29.0966L15.5662 29.1989C15.5662 29.1989 15.0525 29.6591 14.5901 29.3011L14.2305 29.0454C14.2305 29.0454 13.9736 29.0966 13.8709 29.0966C13.7681 29.0454 9.29865 29.1477 9.29865 29.1477C9.29865 29.1477 8.32256 29.25 8.27118 28.9432C8.27118 28.9432 8.16843 27.7159 8.21981 27.5625C8.21981 27.5625 8.21981 27.2045 8.01431 27.1534C8.01431 27.1534 7.03822 27.1023 7.03822 27C7.03822 27 6.52448 26.642 6.6786 26.2841C6.6786 26.2841 6.83272 25.8239 7.34646 25.7727C7.34646 25.7727 8.11706 25.875 8.11706 25.6704C8.11706 25.6704 8.16843 25.517 8.16843 25.2614C8.16843 25.2614 8.21981 22.3977 8.16843 22.1932C8.16843 22.1932 8.21981 21.8352 7.91157 21.8352C7.91157 21.8352 7.55195 21.9375 7.34646 21.7841C7.34646 21.7841 6.78135 21.7841 6.62723 21.375C6.62723 21.375 6.52448 21.0682 6.6786 20.8636C6.6786 20.8636 6.93547 20.3523 7.70607 20.5057C7.70607 20.5057 8.11706 20.6079 8.21981 20.3011V19.125C8.21981 19.125 8.11706 18.8182 8.73354 18.6136C8.73354 18.6136 9.50415 18.8182 9.76101 18.4602C9.76101 18.4602 10.0179 17.9489 10.2747 18.3068C10.2747 18.3068 10.7371 18.767 12.0214 18.7159C12.0214 18.7159 14.2305 18.5625 14.2819 18.6136C14.2819 18.6136 14.7956 18.7159 14.9497 18.8693L15.1039 18.767ZM8.47668 14.7273C8.47668 14.7273 8.21981 15.5966 7.03822 14.7273L2.92833 14.625C2.92833 14.625 2.4146 14.7784 2.31185 14.2159C2.31185 14.2159 2.4146 13.0909 2.36323 12.9886C2.36323 12.9886 2.4146 12.6818 1.84949 12.6818C1.84949 12.6818 1.02751 12.7841 0.97614 12.0682C0.97614 12.0682 0.82202 11.3011 1.95224 11.3011C1.95224 11.3011 2.31185 11.4545 2.36323 10.9943C2.36323 10.9943 2.31185 7.82385 2.31185 7.61931C2.31185 7.61931 2.4146 7.31249 1.84949 7.26135C1.84949 7.26135 1.02751 7.41476 0.924767 6.9034C0.924767 6.9034 0.873393 6.08522 1.38713 6.03408C1.38713 6.03408 2.05498 6.08522 2.15773 5.93181C2.15773 5.93181 2.31185 6.03408 2.26048 5.42044L2.31185 4.44885C2.31185 4.44885 2.36323 4.19317 2.77421 4.19317C2.77421 4.19317 3.54482 4.24431 3.64756 4.19317C3.64756 4.19317 3.80168 3.98863 3.85306 3.88635C3.85306 3.88635 4.26405 3.88635 4.31542 3.93749C4.31542 3.93749 4.88053 4.34658 7.14096 4.19317C7.14096 4.19317 7.50058 4.19317 7.55195 4.29544C7.55195 4.29544 7.96294 4.60226 8.21981 4.29544C8.21981 4.29544 8.57942 4.24431 9.70964 4.24431C9.70964 4.24431 10.8912 4.55113 11.7132 3.88635L11.9701 3.93749C11.9701 3.93749 12.3297 4.49999 12.5352 4.34658C12.5352 4.34658 13.2544 4.29544 13.4085 4.39772C13.4085 4.39772 13.6654 4.75567 13.5113 5.72726C13.5113 5.72726 13.3572 6.13635 14.0764 6.13635C14.0764 6.13635 14.8984 5.98294 14.7956 6.74999C14.7956 6.74999 15.0011 7.61931 13.6654 7.4659C13.6654 7.4659 13.5113 7.72158 13.5113 7.87499C13.5113 7.87499 13.5113 10.6364 13.4599 10.9432C13.4599 10.9432 13.4599 11.3523 14.025 11.3523C14.025 11.3523 14.7956 11.3011 14.847 12.017C14.847 12.017 14.9497 12.9375 13.8195 12.7841C13.8195 12.7841 13.4599 12.8352 13.4085 13.0398L13.3572 14.267C13.3572 14.267 13.3572 14.8807 12.6893 14.7273C12.5866 14.7273 8.88766 14.7784 8.57942 14.7273C8.68217 14.625 8.52805 14.625 8.47668 14.7273Z" fill="white"/>
<path d="M22.9642 14.7273C22.9642 14.7273 22.7073 15.5966 21.5257 14.7273L17.4158 14.625C17.4158 14.625 16.9021 14.7784 16.7993 14.2159C16.7993 14.2159 16.9021 13.0909 16.8507 12.9886C16.8507 12.9886 16.8507 12.6818 16.337 12.6818C16.337 12.6818 15.515 12.7841 15.4636 12.0682C15.4636 12.0682 15.3095 11.3011 16.4397 11.3011C16.4397 11.3011 16.7993 11.4545 16.8507 10.9943C16.8507 10.9943 16.7993 7.82385 16.8507 7.61931C16.8507 7.61931 16.9535 7.31249 16.3883 7.26135C16.3883 7.26135 15.5664 7.41476 15.4636 6.9034C15.4636 6.9034 15.4122 6.08522 15.9774 6.03408C15.9774 6.03408 16.6452 6.08522 16.748 5.93181C16.748 5.93181 16.9021 6.03408 16.8507 5.47158V4.44885C16.8507 4.44885 16.9021 4.19317 17.3644 4.19317C17.3644 4.19317 18.135 4.24431 18.2378 4.19317C18.2378 4.19317 18.3919 3.98863 18.4433 3.88635C18.4433 3.88635 18.8543 3.88635 18.9056 3.93749C18.9056 3.93749 19.4708 4.34658 21.7312 4.19317C21.7312 4.19317 22.0908 4.19317 22.1422 4.29544C22.1422 4.29544 22.5532 4.60226 22.81 4.29544C22.81 4.29544 23.1696 4.24431 24.2485 4.24431C24.2485 4.24431 25.4301 4.55113 26.2521 3.88635L26.5089 3.93749C26.5089 3.93749 26.8685 4.49999 27.074 4.34658C27.074 4.34658 27.7933 4.29544 27.9474 4.39772C27.9474 4.39772 28.2043 4.75567 28.0501 5.72726C28.0501 5.72726 27.896 6.13635 28.6152 6.13635C28.6152 6.13635 29.4372 5.98294 29.3345 6.74999C29.3345 6.74999 29.54 7.61931 28.2043 7.4659C28.2043 7.4659 28.0501 7.72158 28.0501 7.87499C28.0501 7.87499 27.9988 10.6364 27.9988 10.9432C27.9988 10.9432 27.9474 11.3523 28.5639 11.3523C28.5639 11.3523 29.3345 11.3011 29.3858 12.017C29.3858 12.017 29.4886 12.9375 28.3584 12.7841C28.3584 12.7841 27.9988 12.8352 27.9474 13.0398L27.896 14.267C27.896 14.267 27.9474 14.8807 27.2282 14.7273C27.1254 14.7273 23.4265 14.7784 23.1183 14.7273C23.1696 14.625 23.0155 14.625 22.9642 14.7273Z" fill="#1E1E1E"/>
<path d="M22.9642 14.7273C22.9642 14.7273 22.7073 15.5966 21.5257 14.7273L17.4158 14.625C17.4158 14.625 16.9021 14.7784 16.7993 14.2159C16.7993 14.2159 16.9021 13.0909 16.8507 12.9886C16.8507 12.9886 16.8507 12.6818 16.337 12.6818C16.337 12.6818 15.515 12.7841 15.4636 12.0682C15.4636 12.0682 15.3095 11.3011 16.4397 11.3011C16.4397 11.3011 16.7993 11.4545 16.8507 10.9943C16.8507 10.9943 16.7993 7.82385 16.8507 7.61931C16.8507 7.61931 16.9535 7.31249 16.3883 7.26135C16.3883 7.26135 15.5664 7.41476 15.4636 6.9034C15.4636 6.9034 15.4122 6.08522 15.9774 6.03408C15.9774 6.03408 16.6452 6.08522 16.748 5.93181C16.748 5.93181 16.9021 6.03408 16.8507 5.47158V4.44885C16.8507 4.44885 16.9021 4.19317 17.3644 4.19317C17.3644 4.19317 18.135 4.24431 18.2378 4.19317C18.2378 4.19317 18.3919 3.98863 18.4433 3.88635C18.4433 3.88635 18.8543 3.88635 18.9056 3.93749C18.9056 3.93749 19.4708 4.34658 21.7312 4.19317C21.7312 4.19317 22.0908 4.19317 22.1422 4.29544C22.1422 4.29544 22.5532 4.60226 22.81 4.29544C22.81 4.29544 23.1696 4.24431 24.2485 4.24431C24.2485 4.24431 25.4301 4.55113 26.2521 3.88635L26.5089 3.93749C26.5089 3.93749 26.8685 4.49999 27.074 4.34658C27.074 4.34658 27.7933 4.29544 27.9474 4.39772C27.9474 4.39772 28.2043 4.75567 28.0501 5.72726C28.0501 5.72726 27.896 6.13635 28.6152 6.13635C28.6152 6.13635 29.4372 5.98294 29.3345 6.74999C29.3345 6.74999 29.54 7.61931 28.2043 7.4659C28.2043 7.4659 28.0501 7.72158 28.0501 7.87499C28.0501 7.87499 27.9988 10.6364 27.9988 10.9432C27.9988 10.9432 27.9474 11.3523 28.5639 11.3523C28.5639 11.3523 29.3345 11.3011 29.3858 12.017C29.3858 12.017 29.4886 12.9375 28.3584 12.7841C28.3584 12.7841 27.9988 12.8352 27.9474 13.0398L27.896 14.267C27.896 14.267 27.9474 14.8807 27.2282 14.7273C27.1254 14.7273 23.4265 14.7784 23.1183 14.7273C23.1696 14.625 23.0155 14.625 22.9642 14.7273Z" stroke="#1E1E1E" stroke-width="0.164"/>
<path d="M18.3918 4.70453C18.3918 4.70453 18.4431 5.21589 18.4431 5.31817C18.4431 5.42044 18.3918 12.3238 18.3918 12.3238C18.3918 12.3238 18.4431 12.8352 17.9808 13.142C17.9808 13.142 17.878 13.1932 17.8267 12.8352L17.878 5.57385C17.878 5.57385 17.9294 4.70453 18.3918 4.70453Z" fill="white"/>
<path d="M18.3918 4.70453C18.3918 4.70453 18.4431 5.21589 18.4431 5.31817C18.4431 5.42044 18.3918 12.3238 18.3918 12.3238C18.3918 12.3238 18.4431 12.8352 17.9808 13.142C17.9808 13.142 17.878 13.1932 17.8267 12.8352L17.878 5.57385C17.878 5.57385 17.9294 4.70453 18.3918 4.70453Z" stroke="#1E1E1E" stroke-width="0.1722"/>
<path d="M17.5697 13.1932C17.5697 13.1932 17.621 6.3409 17.5697 6.23862V6.3409C17.5697 6.3409 17.5183 5.16476 17.8265 4.6534C17.8265 4.6534 17.7238 4.24431 17.1587 4.75567V5.72726C17.1587 5.72726 17.1587 6.28976 16.6449 6.23862C16.6449 6.23862 16.0798 6.23862 15.7716 6.4943C15.7716 6.4943 15.6175 7.00567 16.1826 6.95453C16.1826 6.95453 17.0559 6.95453 17.1073 7.31249L17.0559 10.9943C17.0559 10.9943 17.2614 11.6079 16.5422 11.6079C16.5422 11.6079 15.7202 11.5568 15.7202 12.0682C15.7202 12.0682 15.8743 12.4773 16.5936 12.375C16.5936 12.375 17.1073 12.4773 17.1073 12.9375V13.8579C17.1073 13.8579 17.0559 14.2159 17.5183 14.267H21.3199C21.3199 14.267 21.5254 14.267 21.5254 14.0625C21.5254 14.0625 21.5254 13.8579 21.2172 13.8579L18.1348 13.8068C18.1348 13.8068 17.621 13.9602 17.5697 13.1932Z" fill="white"/>
<path d="M18.289 13.1932C18.289 13.1932 18.1862 13.5511 18.5458 13.4489H21.0631L21.731 13.6023C21.731 13.6023 22.4502 13.4489 21.731 13.0398H19.3164C19.3164 13.0398 18.8541 12.9375 18.7513 12.8864C18.7513 12.8864 18.4945 12.7841 18.289 13.1932Z" fill="white"/>
<path d="M18.289 13.1932C18.289 13.1932 18.1862 13.5511 18.5458 13.4489H21.0631L21.731 13.6023C21.731 13.6023 22.4502 13.4489 21.731 13.0398H19.3164C19.3164 13.0398 18.8541 12.9375 18.7513 12.8864C18.7513 12.8864 18.4945 12.7841 18.289 13.1932Z" stroke="#1E1E1E" stroke-width="0.1722"/>
<path d="M22.4501 13.5511C22.4501 13.5511 21.9878 13.5511 22.0391 14.1647C22.0391 14.1647 22.0905 14.625 22.5529 14.625C22.5529 14.625 22.9639 14.5738 22.9639 14.0625C22.9639 14.0625 22.6556 13.4488 22.4501 13.5511ZM22.8097 13.2954C22.8097 13.2954 23.0152 13.0397 23.1694 13.0397C23.1694 13.0397 25.5839 13.2443 25.9949 12.9886C25.9949 12.9886 26.3545 12.9375 26.4573 12.9886C26.4573 12.9886 26.8169 13.2954 26.8169 13.4488C26.8169 13.4488 26.8169 13.6534 26.3545 13.5511H23.4776C23.4776 13.5511 22.707 13.7557 22.8097 13.2954Z" fill="white"/>
<path d="M22.8097 13.2954C22.8097 13.2954 23.0152 13.0397 23.1693 13.0397C23.1693 13.0397 25.5839 13.2443 25.9949 12.9886C25.9949 12.9886 26.3545 12.9375 26.4572 12.9886C26.4572 12.9886 26.8169 13.2954 26.8169 13.4488C26.8169 13.4488 26.8169 13.6534 26.3545 13.5511H23.4776C23.4776 13.5511 22.707 13.7557 22.8097 13.2954Z" stroke="#1E1E1E" stroke-width="0.1722"/>
<path d="M23.1179 14.0625C23.1179 14.0625 23.1179 13.858 23.4776 13.858H26.8682C26.8682 13.858 27.1764 14.0114 27.1764 13.4489C27.1764 13.4489 27.2792 10.7898 27.3306 7.87502C27.3306 7.0057 27.3819 6.08524 27.3306 5.26706C27.3306 5.26706 27.2278 4.90911 27.1764 4.80683C27.1764 4.80683 27.1764 4.39774 27.5874 4.55115C27.5874 4.55115 27.947 4.55115 27.8443 5.11365V5.93184C27.8443 5.93184 27.7929 6.28979 28.4094 6.18752C28.4094 6.18752 29.0773 6.28979 29.0773 6.54547C29.0773 6.54547 29.2828 7.05683 28.5122 7.0057H27.947C27.947 7.0057 27.6902 7.15911 27.7929 7.46593L27.7416 10.9943C27.7416 10.9943 27.6902 11.608 28.2553 11.5568C28.2553 11.5568 28.8718 11.5568 28.9745 11.7102C28.9745 11.7102 29.3855 12.3239 28.5122 12.2727C28.5122 12.2727 27.947 12.2727 27.8443 12.3239C27.8443 12.3239 27.7416 12.4262 27.6902 13.6023C27.6902 13.6023 27.7416 14.2671 27.2278 14.2159C27.2278 14.2159 23.8372 14.2671 23.5289 14.2159C23.5289 14.2671 23.1693 14.3693 23.1179 14.0625ZM18.7512 4.50002L18.6484 12.2727C18.6484 12.2727 18.6484 12.6307 19.2135 12.6818C19.2135 12.6818 19.9328 12.733 20.0869 12.6818H21.7308C21.7308 12.6818 22.0391 12.9887 22.0391 12.5796C22.0391 12.5796 22.2446 6.28979 22.1418 4.96024C22.1418 4.96024 22.1418 4.39774 21.6795 4.39774C21.6795 4.39774 19.83 4.55115 19.6759 4.39774L19.0081 4.29547C19.0081 4.29547 18.6998 4.29547 18.7512 4.50002Z" fill="white"/>
<path d="M22.6044 4.90911C22.6044 4.90911 22.553 8.59093 22.553 8.6932L22.5017 11.7614L22.3989 12.8352C22.3989 12.8352 22.553 13.0398 22.6558 12.8864C22.6558 12.8864 23.4264 12.6818 23.9401 12.7841C23.9401 12.7841 25.4813 12.9375 25.841 12.6818C25.841 12.6818 26.0978 12.7841 26.1492 12.4262C26.1492 12.4262 26.2519 5.62502 26.2006 5.52274C26.2006 5.52274 26.3033 4.55115 26.2519 4.44888C26.2519 4.44888 26.2519 4.24433 25.841 4.44888C25.841 4.44888 25.8923 4.65343 23.5805 4.55115C23.5291 4.55115 22.6044 4.50002 22.6044 4.90911ZM26.4574 4.80683V12.4773C26.4574 12.4773 26.6629 13.1421 26.9712 13.0909C26.9712 13.0909 27.0225 12.9375 27.0225 12.6818L27.1253 5.36933C27.1253 5.36933 26.8684 4.24433 26.4574 4.80683Z" fill="white"/>
<path d="M26.4575 4.80679V12.4772C26.4575 12.4772 26.663 13.142 26.9713 13.0909C26.9713 13.0909 27.0226 12.9375 27.0226 12.6818L27.1254 5.36929C27.1254 5.36929 26.8685 4.24429 26.4575 4.80679Z" stroke="#1E1E1E" stroke-width="0.1722"/>
<path d="M23.4778 7.10795C23.4264 6.90341 23.8888 6.90341 23.8888 6.90341L24.1457 6.95455C24.2998 6.95455 24.5053 7.00568 24.5053 7.00568C24.6594 7.26136 24.4025 7.41477 24.4025 7.41477L24.2998 7.72159V10.2784C24.3512 10.3807 24.5567 10.6364 24.5567 10.6364C24.5567 10.8409 24.2998 10.7898 24.2998 10.7898H23.5806C23.3751 10.7898 23.4264 10.5341 23.4264 10.5341C23.6833 10.4318 23.7347 9.97159 23.7347 9.97159V7.56818L23.4778 7.10795ZM20.1899 9.35795L20.1385 10.125L20.344 10.483C20.4982 10.6875 20.2413 10.8409 20.2413 10.8409L19.4707 10.7386C19.3166 10.6875 19.4707 10.4318 19.4707 10.4318C19.6762 10.3295 19.6762 10.0227 19.6762 10.0227V7.56818C19.6762 7.46591 19.4707 7.21023 19.4707 7.21023C19.3166 7.21023 19.3679 6.95455 19.3679 6.95455C19.4193 6.85227 19.8303 6.90341 19.8303 6.90341H20.8578C21.8339 7.21023 21.6797 7.92614 21.6797 7.92614C21.7311 8.64205 21.0119 8.89773 21.0119 8.89773L20.9605 9.30682L21.6797 10.4318C21.7825 10.5341 21.7825 10.6364 21.7825 10.6364C21.6797 10.892 21.2688 10.6364 21.2688 10.6364L20.3954 9.25568C20.2927 9.15341 20.1899 9.35795 20.1899 9.35795ZM20.1899 7.41477V8.69318C20.6523 9.05114 20.9091 8.53977 20.9091 8.53977C21.5256 7.97727 20.9091 7.41477 20.8064 7.26136C20.7036 7.10795 20.2413 7.26136 20.2413 7.26136L20.1899 7.41477ZM15.1039 18.767C15.1039 18.767 15.2581 18.7159 15.3094 18.5625C15.3094 18.5625 15.8232 18.5114 15.8745 18.4602L17.4671 18.5625C17.4671 18.5625 19.0597 18.6648 19.7276 18.2045C19.7276 18.2045 19.9844 18.2045 20.1385 18.2557C20.1385 18.2557 20.4982 18.3068 20.5495 18.4602H21.4742C21.4742 18.4602 21.988 18.6136 21.988 18.9716V19.4318C21.988 19.4318 21.8852 20.3011 22.1421 20.3523H22.8613C22.8613 20.3523 23.4264 20.608 23.3751 20.9659C23.3751 20.9659 23.3751 21.4773 22.8613 21.5284C22.8613 21.5284 22.3476 21.6818 22.1935 21.6307C22.1935 21.6307 22.0394 21.8352 21.988 22.142L21.9366 25.3125C21.9366 25.3125 21.8852 25.6705 22.399 25.6193C22.399 25.6193 23.1696 25.5682 23.3751 25.9773C23.3751 25.9773 23.5806 26.6932 23.1696 26.7955L22.8613 26.9489L22.2449 27.0511C22.2449 27.0511 21.988 27.1023 21.9366 27.5114V28.3807C21.9366 28.3807 21.9366 28.9432 21.5256 28.9432L20.8578 28.9943C20.8578 28.9943 20.7036 29.1477 20.344 29.0455C20.344 29.0455 16.1828 29.0966 16.08 29.0966L15.5663 29.1989C15.5663 29.1989 15.0526 29.6591 14.5902 29.3011L14.2306 29.0455C14.2306 29.0455 13.9737 29.0966 13.871 29.0966C13.7682 29.0455 9.29872 29.1477 9.29872 29.1477C9.29872 29.1477 8.32263 29.25 8.27125 28.9432C8.27125 28.9432 8.16851 27.7159 8.21988 27.5625C8.21988 27.5625 8.21988 27.2045 8.01439 27.1534C8.01439 27.1534 7.03829 27.1023 7.03829 27C7.03829 27 6.52455 26.642 6.67867 26.2841C6.67867 26.2841 6.83279 25.8239 7.34653 25.7727C7.34653 25.7727 8.11713 25.875 8.11713 25.6705C8.11713 25.6705 8.16851 25.517 8.16851 25.2614C8.16851 25.2614 8.21988 22.3977 8.16851 22.1932C8.16851 22.1932 8.21988 21.8352 7.91164 21.8352C7.91164 21.8352 7.55202 21.9375 7.34653 21.7841C7.34653 21.7841 6.78142 21.7841 6.6273 21.375C6.6273 21.375 6.52455 21.0682 6.67867 20.8636C6.67867 20.8636 6.93554 20.3523 7.70614 20.5057C7.70614 20.5057 8.11713 20.608 8.21988 20.3011V19.125C8.21988 19.125 8.11713 18.8182 8.73361 18.6136C8.73361 18.6136 9.50422 18.8182 9.76109 18.4602C9.76109 18.4602 10.018 17.9489 10.2748 18.3068C10.2748 18.3068 10.7372 18.767 12.0215 18.7159C12.0215 18.7159 14.2306 18.5625 14.282 18.6136C14.282 18.6136 14.7957 18.7159 14.9498 18.8693L15.1039 18.767Z" fill="#1E1E1E"/>
<path d="M15.1039 18.7159C15.1039 18.7159 15.2581 18.6648 15.3094 18.5114C15.3094 18.5114 15.8232 18.4602 15.8745 18.4091L17.4671 18.5114C17.4671 18.5114 19.0597 18.6137 19.7276 18.1534C19.7276 18.1534 19.9844 18.1534 20.1385 18.2046C20.1385 18.2046 20.4982 18.2557 20.5495 18.4091H21.4742C21.4742 18.4091 21.988 18.5625 21.988 18.9205V19.3296C21.988 19.3296 21.8852 20.1989 22.1421 20.25H22.8613C22.8613 20.25 23.4264 20.5057 23.3751 20.8637C23.3751 20.8637 23.3751 21.375 22.8613 21.4262C22.8613 21.4262 22.3476 21.5796 22.1935 21.5284C22.1935 21.5284 22.0394 21.733 21.988 22.0398L21.9366 25.2102C21.9366 25.2102 21.8852 25.5682 22.399 25.5171C22.399 25.5171 23.1696 25.4659 23.3751 25.875C23.3751 25.875 23.5806 26.5909 23.1696 26.6932L22.8613 26.8466L22.2449 26.9489C22.2449 26.9489 21.988 27 21.9366 27.4091V28.2784C21.9366 28.2784 21.9366 28.8409 21.5256 28.8409L20.8578 28.8921C20.8578 28.8921 20.7036 29.0455 20.344 28.9432C20.344 28.9432 16.1828 28.9943 16.08 28.9943L15.5663 29.0966C15.5663 29.0966 15.0526 29.5568 14.5902 29.1989L14.2306 28.9432C14.2306 28.9432 13.9737 28.9943 13.871 28.9943C13.7682 28.9432 9.29872 29.0455 9.29872 29.0455C9.29872 29.0455 8.32263 29.1478 8.27125 28.8409C8.27125 28.8409 8.16851 27.6137 8.21988 27.4603C8.21988 27.4603 8.21988 27.1023 8.01439 27.0512C8.01439 27.0512 7.03829 27 7.03829 26.8977C7.03829 26.8977 6.52455 26.5398 6.67867 26.1818C6.67867 26.1818 6.83279 25.7216 7.34653 25.6705C7.34653 25.6705 8.11713 25.7727 8.11713 25.5682C8.11713 25.5682 8.16851 25.4148 8.16851 25.1591C8.16851 25.1591 8.21988 22.2955 8.16851 22.0909C8.16851 22.0909 8.21988 21.733 7.91164 21.733C7.91164 21.733 7.55202 21.8353 7.34653 21.6818C7.34653 21.6818 6.78142 21.6818 6.6273 21.2727C6.6273 21.2727 6.52455 20.9659 6.67867 20.7614C6.67867 20.7614 6.93554 20.25 7.70614 20.4034C7.70614 20.4034 8.16851 20.5057 8.21988 20.1989V19.0227C8.21988 19.0227 8.11713 18.7159 8.73361 18.5114C8.73361 18.5114 9.50422 18.7159 9.76109 18.358C9.76109 18.358 10.018 17.8466 10.2748 18.2046C10.2748 18.2046 10.7372 18.6648 12.0215 18.6137C12.0215 18.6137 14.2306 18.4602 14.282 18.5114C14.282 18.5114 14.7957 18.6137 14.9498 18.7671L15.1039 18.7159Z" stroke="#1E1E1E" stroke-width="0.164"/>
<path d="M15.7201 28.2784C15.7201 28.2784 16.0284 28.125 16.2339 28.1761C16.4394 28.2273 19.2649 28.125 19.2649 28.125C19.2649 28.125 20.4979 28.2273 20.7034 28.0227L21.0116 27.9204C21.0116 27.9204 21.1143 27.767 21.1143 27.5625V26.6932L21.1657 26.4375V19.7386C21.1657 19.7386 21.2685 19.2273 20.9602 18.9204C20.9602 18.9204 20.9602 18.7159 21.063 18.767C21.1657 18.8182 21.1143 18.767 21.1143 18.767C21.1143 18.767 21.5253 18.6648 21.6281 18.8182C21.6281 18.8182 21.8336 19.3807 21.6281 19.7386C21.6281 19.7386 21.5767 20.4545 21.9363 20.4545C21.9363 20.4545 22.0904 20.6079 22.3473 20.5057C22.3473 20.5057 22.9638 20.5568 22.9638 20.7614C22.9638 20.7614 22.9638 21.2216 22.5528 21.1193L21.9877 21.1704C21.9877 21.1704 21.5767 21.2727 21.6281 21.6818C21.6795 22.142 21.6281 25.4659 21.6281 25.4659C21.6281 25.4659 21.6281 25.875 22.2446 25.8239C22.2446 25.8239 23.0152 25.7727 23.0152 26.0284C23.0152 26.0284 23.2207 26.4886 22.6555 26.5398C22.6555 26.5398 21.6281 26.4886 21.7308 26.7954C21.7308 26.7954 21.6795 27.4602 21.6281 27.6136C21.6281 27.6136 21.7308 28.1761 21.6281 28.2784C21.6281 28.2784 21.5767 28.5852 20.9088 28.5341C20.9088 28.5341 16.7476 28.5341 16.0797 28.5852C16.0284 28.6875 15.6174 28.6364 15.7201 28.2784ZM15.0009 27.8182C15.0009 27.8182 15.4119 27.8693 15.4119 28.2784C15.4119 28.6875 15.4119 28.892 15.2064 28.9432C14.9495 28.9943 14.6927 28.892 14.6413 28.5852C14.5385 28.2784 14.6413 27.9204 15.0009 27.8182Z" fill="white"/>
<path d="M15.4636 27.6136C15.4636 27.6136 15.8746 27.3068 16.08 27.3579C16.08 27.3579 18.2891 27.5113 18.957 27.4091C19.6248 27.3068 19.2138 27.3579 19.2138 27.3579C19.2138 27.3579 19.7789 27.3579 19.9844 27.1534C19.9844 27.1534 20.1386 27.1022 20.2413 27.2557L20.6009 27.6647C20.6009 27.6647 20.6009 27.9204 20.1899 27.8693C20.1899 27.8693 16.2342 27.8693 16.08 27.9204C16.1314 27.9204 15.4122 28.0227 15.4636 27.6136Z" fill="white"/>
<path d="M15.4636 27.6136C15.4636 27.6136 15.8746 27.3068 16.08 27.3579C16.08 27.3579 18.2891 27.5113 18.957 27.4091C19.6248 27.3068 19.2138 27.3579 19.2138 27.3579C19.2138 27.3579 19.7789 27.3579 19.9844 27.1534C19.9844 27.1534 20.1386 27.1022 20.2413 27.2557L20.6009 27.6647C20.6009 27.6647 20.6009 27.9204 20.1899 27.8693C20.1899 27.8693 16.2342 27.8693 16.08 27.9204C16.1314 27.9204 15.4122 28.0227 15.4636 27.6136Z" stroke="#1E1E1E" stroke-width="0.1722"/>
<path d="M9.70943 19.0227C9.70943 19.0227 9.86355 19.0227 9.86355 19.3295L9.81218 26.642C9.81218 26.642 9.86355 27.1023 9.45256 27.4602C9.45256 27.4602 9.24707 27.7159 9.24707 27.3068L9.34982 19.8409C9.34982 19.8409 9.34982 19.2784 9.70943 19.0227Z" fill="white"/>
<path d="M9.70943 19.0227C9.70943 19.0227 9.86355 19.0227 9.86355 19.3295L9.81218 26.642C9.81218 26.642 9.86355 27.1023 9.45256 27.4602C9.45256 27.4602 9.24707 27.7159 9.24707 27.3068L9.34982 19.8409C9.34982 19.8409 9.34982 19.2784 9.70943 19.0227Z" stroke="#1E1E1E" stroke-width="0.1722"/>
<path d="M9.2985 19.0739C9.2985 19.0739 8.99026 19.5852 9.04163 19.7386V27.8182C9.04163 27.8182 8.99026 28.3807 9.45262 28.2273C9.45262 28.2273 13.7166 28.125 14.0249 28.2273C14.0249 28.2273 14.4359 28.2784 14.2817 28.483C14.2817 28.483 14.2817 28.6364 14.0249 28.5852C14.0249 28.5852 12.0213 28.7898 10.1718 28.6875C10.1718 28.6875 8.93888 28.7386 8.88751 28.6364C8.88751 28.6364 8.68202 28.5852 8.68202 27.9205C8.68202 27.9205 8.68202 27.2557 8.63064 27.1534C8.63064 27.1534 8.68202 26.7955 8.06553 26.7443C8.06553 26.7443 7.19218 26.8977 7.19218 26.3864C7.19218 26.3864 7.29493 26.0284 8.16828 26.0796C8.16828 26.0796 8.78476 26.1818 8.63064 25.6705L8.68202 22.0909C8.68202 22.0909 8.78476 21.4773 8.3224 21.4261H7.80867C7.80867 21.4261 7.08944 21.4261 7.14081 21.017C7.14081 21.017 7.39768 20.608 8.11691 20.6591C8.11691 20.6591 8.63064 20.7614 8.68202 20.1477C8.68202 20.1477 8.68202 18.9205 8.93888 18.8693C8.88751 18.8693 9.50399 18.9205 9.2985 19.0739Z" fill="white"/>
<path d="M10.018 27.1023C10.018 27.1023 10.3776 27.4602 10.9427 27.4602L14.2306 27.5114C14.2306 27.5114 14.5902 27.5625 14.5902 27.7159C14.5902 27.7159 14.5389 28.0227 14.0765 27.9205L10.0694 27.8693L9.607 27.9205C9.607 27.9205 9.29876 27.8693 9.76112 27.3068L10.018 27.1023Z" fill="white"/>
<path d="M10.018 27.1023C10.018 27.1023 10.3776 27.4602 10.9427 27.4602L14.2306 27.5114C14.2306 27.5114 14.5902 27.5625 14.5902 27.7159C14.5902 27.7159 14.5389 28.0227 14.0765 27.9205L10.0694 27.8693L9.607 27.9205C9.607 27.9205 9.29876 27.8693 9.76112 27.3068L10.018 27.1023Z" stroke="#1E1E1E" stroke-width="0.1722"/>
<path d="M20.2412 26.7954C20.2412 26.7954 20.5495 27.3579 20.6522 27.4091C20.6522 27.4091 20.9091 27.7159 20.8577 27.1534L20.9091 20.1477C20.9091 20.1477 20.8577 19.892 20.9091 19.5341L20.6008 19.0227C20.6008 19.0227 20.2926 18.767 20.2926 19.1761V26.5909L20.2412 26.7954Z" fill="white"/>
<path d="M20.2412 26.7954C20.2412 26.7954 20.5495 27.3579 20.6522 27.4091C20.6522 27.4091 20.9091 27.7159 20.8577 27.1534L20.9091 20.1477C20.9091 20.1477 20.8577 19.892 20.9091 19.5341L20.6008 19.0227C20.6008 19.0227 20.2926 18.767 20.2926 19.1761V26.5909L20.2412 26.7954Z" stroke="#1E1E1E" stroke-width="0.1722"/>
<path d="M14.8469 23.4716C14.8469 23.4716 14.8469 24.0341 14.7955 24.5966C14.7441 24.9034 14.8982 26.3352 14.7955 27.0511C14.7955 27.0511 14.7955 27.3068 14.2818 27.1023C14.2818 27.1023 11.148 27.1534 11.0966 27.0511C11.0966 27.0511 10.2232 27.1023 10.1719 26.6421C10.1719 26.6421 10.2746 23.3182 10.2232 23.2159C10.2232 23.2159 10.1719 21.4261 10.2232 21.2216C10.2232 21.2216 10.2746 19.5341 10.2232 19.3296C10.2232 19.3296 10.2232 18.9205 10.1719 18.7671C10.1719 18.7671 10.1719 18.5114 10.5829 18.6648C10.5829 18.6648 10.737 18.9205 11.5076 18.8182C11.5076 18.8182 12.0727 18.9205 12.6378 18.8182C12.6378 18.8182 13.8708 18.7159 14.179 18.8182C14.179 18.8182 14.6927 18.7159 14.7955 19.2784V20.7614L14.9496 21.2727L15.1037 21.1705L15.1551 20.8125V19.2273C15.1551 19.2273 15.2579 18.9205 15.6688 18.8693C15.6688 18.8693 16.2853 18.8182 16.3881 18.8693C16.4908 18.9205 17.8265 18.9716 18.1861 18.9205C18.5458 18.8693 18.5971 19.1761 19.7274 18.6136C19.7274 18.6136 20.0356 18.6136 20.0356 18.8182C20.0356 18.8182 19.9328 20.8636 20.0356 21.2727C20.0356 21.2727 20.0356 25.0568 19.9328 25.3125L19.9842 26.5398C19.9842 26.5398 20.0356 27.0511 19.1622 27.1023C19.1622 27.1023 19.676 27.1534 16.3367 27.0511C16.3367 27.0511 15.823 27 15.2065 27.3068C15.2065 27.3068 15.1037 27.2557 15.1037 26.9489C15.1037 26.9489 15.2065 25.8239 15.1037 24.6989L15.0524 23.4716H14.8469Z" fill="white"/>
<path d="M12.6893 21.7329C12.6893 21.7329 12.7407 23.5227 12.6893 23.7784V24.1875C12.6893 24.1875 12.7921 24.4432 12.9462 24.5454C12.9462 24.5454 13.0489 24.9034 12.7921 24.8523C12.7921 24.8523 12.1756 24.8011 12.0215 24.8523C12.0215 24.8523 11.6618 24.8523 12.0215 24.4432C12.0215 24.4432 12.1242 24.2898 12.1242 23.8295C12.1242 23.8295 12.1242 21.7841 12.1756 21.6818C12.1756 21.6818 12.2269 21.4261 12.0728 21.3239H11.7646L11.405 21.6818C11.405 21.6818 11.3022 22.0398 11.1481 21.6818V21.4773L11.3536 20.9148H11.5077C11.5077 20.9148 11.7132 21.0682 11.9187 21.1193H13.0489L13.4599 20.9148C13.4599 20.9148 13.614 20.9148 13.5627 21.1704C13.5627 21.1704 13.614 21.7329 13.3058 21.7841C13.3058 21.7841 13.1003 21.7329 12.9975 21.4261C12.9975 21.375 12.6893 21.1704 12.6893 21.7329ZM18.0322 21.0682C18.0322 21.0682 17.1074 20.9659 17.1074 21.9886C17.1074 21.9886 17.0047 22.6534 18.0322 23.1136C18.0322 23.1136 18.8028 23.4716 18.7514 23.9318C18.7514 23.9318 18.6486 24.75 17.8267 24.3409C17.8267 24.3409 17.4157 24.1364 17.467 23.9318C17.467 23.9318 17.3643 23.6761 17.2102 23.7273C17.2102 23.7273 17.0561 23.7784 17.1074 24.5966C17.1074 24.5966 17.1074 24.9034 17.467 24.5966L17.6725 24.6477C17.6725 24.6477 18.3404 25.1591 18.9055 24.5454C18.9055 24.5454 19.522 23.9829 19.0596 23.3182C19.0596 23.3182 18.7514 22.8068 18.1863 22.6023C18.1863 22.6023 17.6725 22.3466 17.5184 21.9375C17.5184 21.9375 17.6725 21.2216 18.3404 21.5795C18.3404 21.5795 18.5973 21.8864 18.7514 21.9375C18.7514 21.9375 18.9569 21.9375 18.9055 21.4773L18.8541 21.1193C18.8541 21.1193 18.8028 20.8636 18.4431 21.1193C18.4431 21.0682 18.1349 21.2216 18.0322 21.0682ZM15.1039 20.5568C15.258 20.6591 15.3094 20.9148 15.3094 20.9148C15.8231 22.1932 16.2341 24.0852 16.2341 24.0852C16.3368 24.3409 16.5937 24.4943 16.5937 24.4943C17.0047 24.6477 16.5937 24.75 16.5937 24.75C16.4396 24.8011 15.8745 24.75 15.8745 24.75C15.5662 24.6989 15.7203 24.5966 15.7203 24.5966C15.8231 24.4943 15.7203 23.9829 15.7203 23.9829C15.7203 23.7784 15.4635 23.4716 15.4635 23.4716C15.3607 23.4204 15.2066 23.625 15.2066 23.625C15.2066 23.625 14.9497 23.7273 14.8984 23.625C14.847 23.5227 14.6929 23.4204 14.6929 23.4204C14.3846 23.4204 14.2819 24.1364 14.2819 24.1364C14.436 24.75 14.2819 24.6477 14.2819 24.6477C14.1278 24.8523 13.6654 24.6989 13.6654 24.6989C13.4599 24.6477 13.614 24.4943 13.614 24.4943C13.8709 24.4432 13.9736 24.1364 13.9736 24.1364C14.0764 23.9829 14.8984 20.8125 14.8984 20.8125C14.847 20.7614 14.8984 20.4545 15.1039 20.5568ZM14.6929 22.1932C14.6929 22.2954 14.4874 23.0114 14.4874 23.0114L14.6415 23.267H15.1552C15.258 23.267 15.3094 23.1648 15.3094 23.0114C15.3094 22.9091 15.0525 22.142 15.0525 22.142L14.9497 21.9886L14.6929 22.1932ZM8.47668 14.7273C8.47668 14.7273 8.21981 15.5966 7.03822 14.7273L2.92833 14.625C2.92833 14.625 2.4146 14.7784 2.31185 14.2159C2.31185 14.2159 2.4146 13.0909 2.36323 12.9886C2.36323 12.9886 2.4146 12.6818 1.84949 12.6818C1.84949 12.6818 1.02751 12.7841 0.97614 12.0682C0.97614 12.0682 0.82202 11.3011 1.95224 11.3011C1.95224 11.3011 2.31185 11.4545 2.36323 10.9943C2.36323 10.9943 2.31185 7.82385 2.31185 7.61931C2.31185 7.61931 2.4146 7.31249 1.84949 7.26135C1.84949 7.26135 1.02751 7.41476 0.924767 6.9034C0.924767 6.9034 0.873393 6.08522 1.38713 6.03408C1.38713 6.03408 2.05498 6.08522 2.15773 5.93181C2.15773 5.93181 2.31185 6.03408 2.26048 5.42044L2.31185 4.44885C2.31185 4.44885 2.36323 4.19317 2.77421 4.19317C2.77421 4.19317 3.54482 4.24431 3.64756 4.19317C3.64756 4.19317 3.80168 3.98863 3.85306 3.88635C3.85306 3.88635 4.26405 3.88635 4.31542 3.93749C4.31542 3.93749 4.88053 4.34658 7.14096 4.19317C7.14096 4.19317 7.50058 4.19317 7.55195 4.29544C7.55195 4.29544 7.96294 4.60226 8.21981 4.29544C8.21981 4.29544 8.57942 4.24431 9.70964 4.24431C9.70964 4.24431 10.8912 4.55113 11.7132 3.88635L11.9701 3.93749C11.9701 3.93749 12.3297 4.49999 12.5352 4.34658C12.5352 4.34658 13.2544 4.29544 13.4085 4.39772C13.4085 4.39772 13.6654 4.75567 13.5113 5.72726C13.5113 5.72726 13.3572 6.13635 14.0764 6.13635C14.0764 6.13635 14.8984 5.98294 14.7956 6.74999C14.7956 6.74999 15.0011 7.61931 13.6654 7.4659C13.6654 7.4659 13.5113 7.72158 13.5113 7.87499C13.5113 7.87499 13.5113 10.6364 13.4599 10.9432C13.4599 10.9432 13.4599 11.3523 14.025 11.3523C14.025 11.3523 14.7956 11.3011 14.847 12.017C14.847 12.017 14.9497 12.9375 13.8195 12.7841C13.8195 12.7841 13.4599 12.8352 13.4085 13.0398L13.3572 14.267C13.3572 14.267 13.3572 14.8807 12.6893 14.7273C12.5866 14.7273 8.88767 14.7784 8.57942 14.7273C8.68217 14.625 8.52805 14.625 8.47668 14.7273Z" fill="#1E1E1E"/>
<path d="M8.47668 14.7273C8.47668 14.7273 8.21981 15.5966 7.03822 14.7273L2.92833 14.625C2.92833 14.625 2.4146 14.7784 2.31185 14.2159C2.31185 14.2159 2.4146 13.0909 2.36323 12.9886C2.36323 12.9886 2.4146 12.6818 1.84949 12.6818C1.84949 12.6818 1.02751 12.7841 0.97614 12.0682C0.97614 12.0682 0.82202 11.3011 1.95224 11.3011C1.95224 11.3011 2.31185 11.4545 2.36323 10.9943C2.36323 10.9943 2.31185 7.82385 2.31185 7.61931C2.31185 7.61931 2.4146 7.31249 1.84949 7.26135C1.84949 7.26135 1.02751 7.41476 0.924767 6.9034C0.924767 6.9034 0.873393 6.08522 1.38713 6.03408C1.38713 6.03408 2.05498 6.08522 2.15773 5.93181C2.15773 5.93181 2.31185 6.03408 2.26048 5.42044L2.31185 4.44885C2.31185 4.44885 2.36323 4.19317 2.77421 4.19317C2.77421 4.19317 3.54482 4.24431 3.64756 4.19317C3.64756 4.19317 3.80168 3.98863 3.85306 3.88635C3.85306 3.88635 4.26405 3.88635 4.31542 3.93749C4.31542 3.93749 4.88053 4.34658 7.14096 4.19317C7.14096 4.19317 7.50058 4.19317 7.55195 4.29544C7.55195 4.29544 7.96294 4.60226 8.21981 4.29544C8.21981 4.29544 8.57942 4.24431 9.70964 4.24431C9.70964 4.24431 10.8912 4.55113 11.7132 3.88635L11.9701 3.93749C11.9701 3.93749 12.3297 4.49999 12.5352 4.34658C12.5352 4.34658 13.2544 4.29544 13.4085 4.39772C13.4085 4.39772 13.6654 4.75567 13.5113 5.72726C13.5113 5.72726 13.3572 6.13635 14.0764 6.13635C14.0764 6.13635 14.8984 5.98294 14.7956 6.74999C14.7956 6.74999 15.0011 7.61931 13.6654 7.4659C13.6654 7.4659 13.5113 7.72158 13.5113 7.87499C13.5113 7.87499 13.5113 10.6364 13.4599 10.9432C13.4599 10.9432 13.4599 11.3523 14.025 11.3523C14.025 11.3523 14.7956 11.3011 14.847 12.017C14.847 12.017 14.9497 12.9375 13.8195 12.7841C13.8195 12.7841 13.4599 12.8352 13.4085 13.0398L13.3572 14.267C13.3572 14.267 13.3572 14.8807 12.6893 14.7273C12.5866 14.7273 8.88767 14.7784 8.57942 14.7273C8.68217 14.625 8.52805 14.625 8.47668 14.7273Z" stroke="#1E1E1E" stroke-width="0.164"/>
<path d="M3.90446 4.70453C3.90446 4.70453 3.95584 5.21589 3.95584 5.31817C3.95584 5.42044 3.90446 12.3238 3.90446 12.3238C3.90446 12.3238 3.95584 12.8352 3.49348 13.142C3.49348 13.142 3.39073 13.1932 3.33936 12.8352L3.39073 5.57385C3.39073 5.57385 3.4421 4.70453 3.90446 4.70453Z" fill="white"/>
<path d="M3.90446 4.70453C3.90446 4.70453 3.95584 5.21589 3.95584 5.31817C3.95584 5.42044 3.90446 12.3238 3.90446 12.3238C3.90446 12.3238 3.95584 12.8352 3.49348 13.142C3.49348 13.142 3.39073 13.1932 3.33936 12.8352L3.39073 5.57385C3.39073 5.57385 3.4421 4.70453 3.90446 4.70453Z" stroke="#1E1E1E" stroke-width="0.1722"/>
<path d="M3.08241 13.1932C3.08241 13.1932 3.13378 6.3409 3.13378 6.23862C3.08241 6.13635 3.13378 6.3409 3.13378 6.3409C3.13378 6.3409 3.08241 5.16476 3.39065 4.6534C3.39065 4.6534 3.2879 4.24431 2.72279 4.75567L2.67142 5.7784C2.67142 5.7784 2.67142 6.3409 2.15769 6.28976C2.15769 6.28976 1.59258 6.28976 1.28434 6.54544C1.28434 6.54544 1.13021 7.0568 1.69532 7.00567C1.69532 7.00567 2.56867 7.00567 2.62005 7.36362L2.56867 11.0454C2.56867 11.0454 2.77417 11.6591 2.10631 11.6591C2.10631 11.6591 1.28434 11.6079 1.28434 12.1193C1.28434 12.1193 1.43846 12.5284 2.15769 12.4261C2.15769 12.4261 2.67142 12.5284 2.62005 12.9886V13.9091C2.62005 13.9091 2.56867 14.267 3.08241 14.3182H6.88405C6.88405 14.3182 7.08954 14.3182 7.08954 14.1136C7.08954 14.1136 7.08954 13.9091 6.7813 13.9091L3.64752 13.8068C3.64752 13.8068 3.13378 13.9602 3.08241 13.1932Z" fill="white"/>
<path d="M3.7504 13.2443C3.7504 13.2443 3.64766 13.6023 4.00727 13.5H6.52457L7.19243 13.6534C7.19243 13.6534 7.91166 13.5 7.19243 13.0909H4.77787C4.77787 13.0909 4.31551 12.9886 4.21276 12.9375C4.21276 12.9375 3.9559 12.8352 3.7504 13.2443Z" fill="white"/>
<path d="M3.7504 13.2443C3.7504 13.2443 3.64766 13.6023 4.00727 13.5H6.52457L7.19243 13.6534C7.19243 13.6534 7.91166 13.5 7.19243 13.0909H4.77787C4.77787 13.0909 4.31551 12.9886 4.21276 12.9375C4.21276 12.9375 3.9559 12.8352 3.7504 13.2443Z" stroke="#1E1E1E" stroke-width="0.1722"/>
<path d="M7.91158 13.6023C7.91158 13.6023 7.44922 13.6023 7.44922 14.2159C7.44922 14.2159 7.50059 14.6761 7.96295 14.6761C7.96295 14.6761 8.37394 14.5738 8.37394 14.1136C8.37394 14.1136 8.11707 13.5 7.91158 13.6023ZM8.21982 13.3466C8.21982 13.3466 8.42532 13.0909 8.57944 13.0909C8.57944 13.0909 10.994 13.2954 11.405 13.0398C11.405 13.0398 11.7646 12.9886 11.8673 13.0398C11.8673 13.0398 12.227 13.3466 12.227 13.5C12.227 13.5 12.227 13.7045 11.7646 13.6023H8.88768C8.93905 13.6023 8.16845 13.8068 8.21982 13.3466Z" fill="white"/>
<path d="M8.21975 13.3466C8.21975 13.3466 8.42524 13.0909 8.57936 13.0909C8.57936 13.0909 10.9939 13.2954 11.4049 13.0398C11.4049 13.0398 11.7645 12.9886 11.8673 13.0398C11.8673 13.0398 12.2269 13.3466 12.2269 13.5C12.2269 13.5 12.2269 13.7045 11.7645 13.6023H8.8876C8.93898 13.6023 8.16837 13.8068 8.21975 13.3466Z" stroke="#1E1E1E" stroke-width="0.1722"/>
<path d="M8.63063 14.0625C8.63063 14.0625 8.63063 13.858 8.99024 13.858H12.3809C12.3809 13.858 12.6891 14.0114 12.6891 13.4489C12.6891 13.4489 12.7919 10.7898 12.8433 7.87502C12.8433 7.0057 12.8946 6.08524 12.8433 5.26706C12.8433 5.26706 12.7919 4.90911 12.6891 4.80683C12.6891 4.80683 12.6891 4.39774 13.1001 4.55115C13.1001 4.55115 13.4597 4.55115 13.357 5.11365V5.98297C13.357 5.98297 13.3056 6.34093 13.9221 6.23865C13.9221 6.23865 14.59 6.34093 14.59 6.59661C14.59 6.59661 14.7955 7.10797 14.0248 7.05684H13.4597C13.4597 7.05684 13.2029 7.21024 13.3056 7.51706L13.2542 11.0455C13.2542 11.0455 13.2029 11.6591 13.768 11.608C13.768 11.608 14.3845 11.608 14.4872 11.7614C14.4872 11.7614 14.8982 12.375 13.9735 12.3239C13.9735 12.3239 13.4084 12.3239 13.3056 12.375C13.3056 12.375 13.2029 12.4773 13.1515 13.6534C13.1515 13.6534 13.2029 14.3182 12.6891 14.2671C12.6891 14.2671 9.29849 14.3182 8.99024 14.2671C8.99024 14.2671 8.682 14.3693 8.63063 14.0625ZM4.26388 4.50002L4.16113 12.2727C4.16113 12.2727 4.16113 12.6307 4.72624 12.6818C4.72624 12.6818 5.44547 12.733 5.59959 12.6818H7.24354C7.24354 12.6818 7.55179 12.9887 7.55179 12.6307C7.55179 12.6307 7.75728 6.34093 7.65453 5.01138C7.65453 5.01138 7.65453 4.44888 7.19217 4.44888C7.19217 4.44888 5.34272 4.60229 5.1886 4.44888L4.52075 4.29547C4.52075 4.29547 4.21251 4.29547 4.26388 4.50002Z" fill="white"/>
<path d="M11.9702 4.80682V12.4773C11.9702 12.4773 12.1757 13.142 12.484 13.0909C12.484 13.0909 12.5353 12.9375 12.5353 12.6818L12.6381 5.36932C12.6381 5.36932 12.3812 4.19319 11.9702 4.80682Z" fill="white"/>
<path d="M11.9702 4.80682V12.4773C11.9702 12.4773 12.1757 13.142 12.484 13.0909C12.484 13.0909 12.5353 12.9375 12.5353 12.6818L12.6381 5.36932C12.6381 5.36932 12.3812 4.19319 11.9702 4.80682Z" stroke="#1E1E1E" stroke-width="0.1722"/>
<path d="M8.06574 4.85796C8.06574 4.85796 8.01437 8.53978 8.01437 8.64205L7.96299 11.7102L7.91162 12.7841C7.91162 12.7841 8.06574 12.9886 8.16849 12.8352C8.16849 12.8352 8.93909 12.6307 9.45283 12.733C9.45283 12.733 10.994 12.8864 11.3536 12.6307C11.3536 12.6307 11.6105 12.733 11.6619 12.375C11.6619 12.375 11.7646 5.57387 11.7133 5.4716C11.7133 5.4716 11.816 4.50001 11.7646 4.39773C11.7646 4.39773 11.7646 4.19319 11.3023 4.39773C11.3023 4.39773 11.3536 4.60228 9.04184 4.50001C8.99047 4.50001 8.11712 4.50001 8.06574 4.85796Z" fill="white"/>
<path d="M7.3464 7.10793L7.1409 7.56815C7.1409 7.56815 6.62717 9.92043 6.31893 10.3807C6.31893 10.3807 6.26755 10.892 5.85657 10.4829C5.85657 10.4829 4.88047 7.51702 4.82909 7.41474L4.52085 7.2102C4.52085 7.2102 4.31536 6.95452 4.67497 6.90338H5.5997C5.5997 6.90338 5.90794 7.15906 5.49695 7.41474C5.49695 7.41474 5.54832 7.82384 6.06206 9.30679C6.06206 9.30679 6.21618 9.86929 6.3703 9.4602L6.88404 7.72156L6.72992 7.2102C6.72992 7.2102 6.5758 6.95452 6.78129 6.95452C6.78129 6.95452 7.29502 6.90338 7.3464 7.10793ZM8.73348 7.51702V10.0738L8.68211 10.2784C8.68211 10.2784 8.42524 10.5852 8.63074 10.6363C8.63074 10.6363 8.42524 10.7897 10.1719 10.7897C10.1719 10.7897 10.8398 10.892 10.6857 10.0227C10.6857 10.0227 10.6343 9.71588 10.3774 10.1761C10.3774 10.1761 10.3261 10.5852 9.40134 10.4318C9.40134 10.4318 9.19585 10.2784 9.19585 10.0738V8.99997C9.19585 8.99997 9.19585 8.74429 9.60683 8.74429C9.60683 8.74429 10.0692 9.05111 10.1206 8.8977C10.1206 8.8977 10.2747 8.48861 10.1206 8.28406C10.1206 8.28406 9.91508 8.28406 9.8637 8.3352C9.8637 8.3352 9.70958 8.64202 9.29859 8.43747C9.29859 8.43747 9.0931 8.02838 9.24722 7.72156C9.24722 7.72156 9.19585 7.10793 9.60683 7.15906C9.60683 7.15906 10.1206 7.26133 10.1206 7.41474C10.1206 7.41474 10.2233 7.72156 10.3774 7.36361L10.2747 7.00565C10.2747 7.00565 10.2233 6.85224 10.0692 6.90338C10.0692 6.90338 9.24722 7.00565 9.14447 6.90338L8.47662 6.95452C8.47662 6.95452 8.37387 7.2102 8.68211 7.31247C8.68211 7.36361 8.73348 7.41474 8.73348 7.51702Z" fill="#1E1E1E"/>
</g>
<defs>
<clipPath id="clip0_49_176">
<rect width="144" height="36" fill="white"/>
</clipPath>
</defs>
</svg>
