<svg width="108" height="25" viewBox="0 0 108 25" fill="none" xmlns="http://www.w3.org/2000/svg">
<g clip-path="url(#clip0_40_72)">
<g clip-path="url(#clip1_40_72)">
<g clip-path="url(#clip2_40_72)">
<path d="M55.2437 14.198C55.2437 19.4688 59.6187 23.323 65.1603 23.323C70.702 23.323 75.077 19.4688 75.077 14.198V2.09385H69.702V13.573C69.702 16.4063 67.7228 18.323 65.1395 18.323C62.5562 18.323 60.577 16.4272 60.577 13.573V2.09385H55.202L55.2437 14.198ZM89.4312 6.94801H95.8478V22.9272H101.223V6.94801H107.639V2.09385H89.452V6.94801H89.4312ZM85.952 2.09385H80.577V22.9272H85.952V2.09385ZM33.5562 6.94801H39.9728V22.9272H45.3478V6.94801H51.7437V2.09385H33.5562V6.94801ZM5.36865 2.09385H-0.00634766V22.9272H5.36865V2.09385ZM30.7228 10.8022C30.7228 5.53134 26.3478 1.67719 20.8062 1.67719C15.2645 1.67719 10.8895 5.53134 10.8895 10.8022V22.9272H16.2645V11.448C16.2645 8.61468 18.2437 6.69801 20.827 6.69801C23.4103 6.69801 25.3895 8.59384 25.3895 11.448V22.9272H30.7645L30.7228 10.8022Z" fill="#236CFF"/>
</g>
</g>
</g>
<defs>
<clipPath id="clip0_40_72">
<rect width="108" height="25" fill="white"/>
</clipPath>
<clipPath id="clip1_40_72">
<rect width="108.321" height="25" fill="white"/>
</clipPath>
<clipPath id="clip2_40_72">
<rect width="108.333" height="25" fill="white" transform="translate(-0.00634766)"/>
</clipPath>
</defs>
</svg>
