<svg width="111" height="39" viewBox="0 0 111 39" fill="none" xmlns="http://www.w3.org/2000/svg">
<g clip-path="url(#clip0_40_76)">
<path d="M50.172 12.5364H6.27197V24.3757H50.172V12.5364Z" fill="white"/>
<path d="M22.9757 17.026C23.1125 17.2208 23.1711 17.4935 23.1906 17.7857H20.8852C20.9243 17.474 21.022 17.2208 21.1392 17.026C21.3346 16.7337 21.6472 16.5584 22.0575 16.5584C22.4873 16.5584 22.7803 16.7142 22.9757 17.026ZM13.8909 18.6623C13.6956 18.7987 13.5979 19.013 13.5979 19.2857C13.5979 19.461 13.637 19.5974 13.6956 19.7143C13.7346 19.7727 13.7541 19.8116 13.8909 19.9091C13.8909 19.9091 14.184 20.1429 14.8483 20.1039C15.3172 20.0844 15.7275 19.987 15.7275 19.987V18.5065C15.7275 18.5065 15.3172 18.4286 14.8483 18.4286C14.1644 18.4091 13.8909 18.6623 13.8909 18.6623ZM35.0887 16.5779C34.6589 16.5779 34.3659 16.7337 34.1706 17.026C33.9751 17.3376 33.8774 17.7663 33.8774 18.3117C33.8774 18.8571 33.9751 19.3052 34.1706 19.6169C34.3659 19.9286 34.6785 20.065 35.0887 20.065C35.5186 20.065 35.8117 19.9091 36.0265 19.6169C36.222 19.3052 36.3391 18.8766 36.3391 18.3117C36.3391 17.7663 36.2415 17.3182 36.0265 17.026C35.8312 16.7142 35.5186 16.5779 35.0887 16.5779ZM55.8959 17.3961C55.8959 24.0974 50.5036 29.513 43.8414 29.513C43.0209 29.513 42.2394 29.4351 41.4579 29.2793C39.9535 31.9675 37.0621 33.7792 33.7798 33.7792C32.3926 33.7792 31.0836 33.4675 29.931 32.9026C28.4071 36.487 24.8317 39 20.6899 39C16.3526 39 12.6796 36.2727 11.2535 32.4351C10.6282 32.5715 9.98347 32.6299 9.33873 32.6299C4.18096 32.6494 0 28.4415 0 23.2403C0 19.7532 1.87557 16.7142 4.66938 15.0974C4.10281 13.7728 3.77068 12.3312 3.77068 10.7922C3.77068 4.83117 8.63543 0 14.6333 0C18.1501 0 21.276 1.67533 23.2688 4.24675C25.0662 2.37662 27.5865 1.20779 30.3608 1.20779C34.0533 1.20779 37.2769 3.25325 38.9767 6.31169C40.4615 5.64935 42.1221 5.27922 43.8414 5.27922C50.5036 5.27922 55.8959 10.7143 55.8959 17.3961ZM11.9763 19.3247C11.9763 18.4286 11.1753 18.0974 10.4134 17.8442L10.3156 17.8052C9.74902 17.6299 9.26064 17.4545 9.26064 17.0844V17.0649C9.26064 16.7532 9.55367 16.5195 9.98347 16.5195C10.4719 16.5195 11.058 16.6753 11.4488 16.8896C11.4488 16.8896 11.566 16.9676 11.6051 16.8507C11.6247 16.7922 11.82 16.2857 11.8395 16.2273C11.8591 16.1689 11.82 16.1299 11.7809 16.0909C11.3511 15.8376 10.7455 15.6429 10.1398 15.6429H10.0226C8.96761 15.6429 8.24469 16.2662 8.24469 17.1818V17.2013C8.24469 18.1558 9.0457 18.4676 9.8077 18.6818L9.92488 18.7208C10.4719 18.8961 10.9603 19.0324 10.9603 19.4221V19.4416C10.9603 19.7922 10.6478 20.065 10.1593 20.065C9.96397 20.065 9.35832 20.065 8.6745 19.6363C8.59636 19.5974 8.55728 19.5584 8.47913 19.5195C8.44006 19.5 8.36191 19.461 8.32284 19.5779L8.0884 20.2013C8.04932 20.2987 8.10793 20.3182 8.10793 20.3182C8.20562 20.3961 8.32284 20.4545 8.42053 20.513C8.98711 20.8052 9.53417 20.9026 10.1007 20.9026C11.2535 20.9416 11.9763 20.3182 11.9763 19.3247ZM16.7433 20.513V17.552C16.7433 16.9091 16.5676 16.4221 16.2354 16.1299C15.9032 15.8376 15.3953 15.6818 14.7506 15.6818C14.5162 15.6818 14.1254 15.7208 13.8909 15.7597C13.8909 15.7597 13.1876 15.8961 12.8946 16.1299C12.8946 16.1299 12.836 16.1689 12.875 16.2662L13.1094 16.8896C13.129 16.9676 13.2072 16.9481 13.2072 16.9481C13.2072 16.9481 13.2267 16.9286 13.2658 16.9286C13.8909 16.5974 14.6724 16.5974 14.6724 16.5974C15.0241 16.5974 15.2976 16.6753 15.4734 16.8117C15.6493 16.9481 15.747 17.1429 15.747 17.591V17.7273C15.4734 17.6883 15.2195 17.6689 15.2195 17.6689C15.0827 17.6689 14.9264 17.6494 14.7115 17.6494C14.438 17.6494 14.1644 17.6883 13.9105 17.7468C13.6565 17.8052 13.422 17.9221 13.2267 18.0584C13.0313 18.1948 12.875 18.3702 12.7578 18.5844C12.6405 18.7987 12.5819 19.0519 12.5819 19.3247C12.5819 19.6169 12.6405 19.8506 12.7382 20.065C12.836 20.2597 12.9727 20.435 13.1681 20.5714C13.3439 20.7078 13.5784 20.8052 13.8323 20.8637C14.0863 20.9221 14.3794 20.9611 14.6919 20.9611C15.0241 20.9611 15.3563 20.9416 15.6688 20.8831C15.9814 20.8247 16.3721 20.7468 16.4894 20.7273C16.5871 20.7078 16.7238 20.6688 16.7238 20.6688C16.7433 20.5909 16.7433 20.513 16.7433 20.513ZM18.8338 13.8117C18.8338 13.7533 18.7947 13.7143 18.7361 13.7143H17.8765C17.8179 13.7143 17.7789 13.7533 17.7789 13.8117V20.7078C17.7789 20.7663 17.8179 20.8052 17.8765 20.8052H18.7361C18.7947 20.8052 18.8338 20.7663 18.8338 20.7078V13.8117ZM24.1089 17.1039C24.0307 16.7922 23.8354 16.4805 23.6986 16.3442C23.4837 16.1104 23.2883 15.9545 23.093 15.8766C22.8194 15.7597 22.5068 15.6818 22.1747 15.6818C21.7644 15.6818 21.3932 15.7597 21.1002 15.8961C20.8071 16.0325 20.5531 16.2273 20.3577 16.461C20.1624 16.6948 20.006 16.987 19.9279 17.2987C19.8303 17.6104 19.7912 17.961 19.7912 18.3312C19.7912 18.7013 19.8498 19.0519 19.9474 19.3637C20.0451 19.6753 20.2015 19.9481 20.4163 20.1818C20.6313 20.4156 20.9048 20.5909 21.2369 20.7273C21.569 20.8442 21.9597 20.9221 22.4091 20.9221C23.3469 20.9221 23.8354 20.7078 24.0502 20.5909C24.0893 20.5714 24.1284 20.5324 24.0698 20.435L23.8549 19.8506C23.8158 19.7532 23.7377 19.7922 23.7377 19.7922C23.5033 19.8701 23.1711 20.026 22.4091 20.026C21.9012 20.026 21.5299 19.8701 21.2955 19.6363C21.0611 19.4026 20.9439 19.0519 20.9243 18.565H24.1675C24.1675 18.565 24.2457 18.565 24.2652 18.487C24.2066 18.4676 24.3043 17.8247 24.1089 17.1039ZM28.7587 19.3442C28.7587 18.4286 27.9577 18.0974 27.1958 17.8442L27.0981 17.8052C26.5315 17.6299 26.043 17.4545 26.043 17.0844V17.0649C26.043 16.7532 26.3361 16.5195 26.766 16.5195C27.2544 16.5195 27.8405 16.6753 28.2312 16.8896C28.2312 16.8896 28.3485 16.9676 28.3875 16.8507C28.4071 16.7922 28.6024 16.2857 28.6219 16.2273C28.6415 16.1689 28.6024 16.1299 28.5633 16.0909C28.1335 15.8376 27.5279 15.6429 26.9222 15.6429H26.805C25.75 15.6429 25.0271 16.2662 25.0271 17.1818V17.2013C25.0271 18.1558 25.8282 18.4676 26.5901 18.6818L26.7073 18.7208C27.2544 18.8961 27.7428 19.0324 27.7428 19.4221V19.4416C27.7428 19.7922 27.4302 20.065 26.9417 20.065C26.7464 20.065 26.1407 20.065 25.457 19.6363C25.3788 19.5974 25.3202 19.5584 25.2615 19.5195C25.242 19.5 25.1444 19.461 25.1053 19.5779L24.8708 20.2013C24.8317 20.2987 24.8903 20.3182 24.8903 20.3182C24.988 20.3961 25.1053 20.4545 25.203 20.513C25.7695 20.8052 26.3166 20.9026 26.8831 20.9026C28.0359 20.9416 28.7587 20.3182 28.7587 19.3442ZM32.6661 15.8961C32.6661 15.8376 32.6466 15.7987 32.5685 15.7987H31.533C31.533 15.7792 31.5916 15.4091 31.7089 15.0779C31.7675 14.9221 31.8456 14.8052 31.9433 14.7273C32.0214 14.6494 32.1192 14.5909 32.2168 14.552C32.3145 14.513 32.4317 14.4935 32.5685 14.4935C32.6661 14.4935 32.7638 14.513 32.842 14.513C32.9397 14.5325 32.9788 14.552 33.0178 14.552C33.1155 14.5909 33.135 14.552 33.1546 14.4935L33.4086 13.8117C33.4281 13.7338 33.3695 13.7143 33.35 13.6948C33.2523 13.6558 33.1546 13.6363 33.0373 13.6168C32.9202 13.5974 32.7638 13.5779 32.588 13.5779C32.0019 13.5779 31.533 13.7533 31.2204 14.0649C30.9079 14.3961 30.6734 14.8831 30.5756 15.526L30.5366 15.7402H29.7942C29.7942 15.7402 29.6966 15.7402 29.677 15.8376L29.5598 16.5195C29.5598 16.5779 29.5793 16.6169 29.6575 16.6169H30.3803L29.6575 20.6688C29.5988 21 29.5402 21.2532 29.4621 21.4676C29.3839 21.6624 29.3253 21.8182 29.2277 21.9351C29.1495 22.0324 29.0713 22.1104 28.9345 22.1688C28.8174 22.2078 28.7001 22.2273 28.5438 22.2273C28.4657 22.2273 28.368 22.2078 28.2898 22.2078C28.2117 22.1883 28.1726 22.1688 28.114 22.1493C28.114 22.1493 28.0359 22.1104 27.9968 22.2078C27.9773 22.2858 27.7818 22.7922 27.7623 22.8701C27.7428 22.9285 27.7623 22.987 27.8209 23.0065C27.9186 23.0455 27.9968 23.065 28.114 23.0845C28.2898 23.1234 28.4462 23.1234 28.5829 23.1234C28.876 23.1234 29.1495 23.0845 29.3839 23.0065C29.6184 22.9285 29.8137 22.7922 29.9896 22.5974C30.1849 22.3831 30.3022 22.1688 30.3999 21.8766C30.5171 21.5844 30.6147 21.2143 30.6929 20.7857L31.4157 16.6753H32.4904C32.4904 16.6753 32.588 16.6753 32.6075 16.5779L32.6661 15.8961ZM37.4333 18.3117C37.4333 17.9416 37.3942 17.6104 37.2965 17.2792C37.1988 16.9676 37.0621 16.6753 36.8666 16.4416C36.6713 16.2078 36.4173 16.013 36.1243 15.8766C35.8312 15.7402 35.4795 15.6623 35.1083 15.6623C34.7175 15.6623 34.3659 15.7402 34.0728 15.8766C33.7798 16.013 33.5258 16.2078 33.3305 16.4416C33.135 16.6753 32.9983 16.9481 32.9006 17.2792C32.8029 17.591 32.7638 17.9416 32.7638 18.3117C32.7638 18.6818 32.8029 19.0324 32.9006 19.3442C32.9983 19.6558 33.135 19.9481 33.3305 20.1818C33.5258 20.4156 33.7798 20.6103 34.0728 20.7273C34.3659 20.8637 34.7175 20.9221 35.1083 20.9221C35.499 20.9221 35.8312 20.8637 36.1243 20.7273C36.4173 20.5909 36.6713 20.4156 36.8666 20.1818C37.0621 19.9481 37.1988 19.6753 37.2965 19.3442C37.3942 19.013 37.4333 18.6818 37.4333 18.3117ZM41.2429 15.8376C41.1844 15.8182 40.9108 15.7597 40.696 15.7402C40.2857 15.7208 40.0707 15.7792 39.8559 15.8766C39.6604 15.974 39.426 16.1104 39.3088 16.2857V15.8961C39.3088 15.8376 39.2697 15.7987 39.2111 15.7987H38.3905C38.3319 15.7987 38.2929 15.8376 38.2929 15.8961V20.7078C38.2929 20.7663 38.3319 20.8052 38.3905 20.8052H39.2502C39.3088 20.8052 39.3479 20.7663 39.3479 20.7078V18.3117C39.3479 17.9805 39.387 17.6689 39.4651 17.4545C39.5433 17.2597 39.6214 17.1039 39.7582 16.987C39.8754 16.8702 40.0121 16.7922 40.1489 16.7532C40.3052 16.7142 40.4615 16.6948 40.5787 16.6948C40.7546 16.6948 40.9304 16.7337 40.9304 16.7337C40.989 16.7337 41.0281 16.6948 41.0476 16.6363C41.1063 16.4805 41.2625 16.052 41.282 15.9545C41.3211 15.8961 41.2625 15.8571 41.2429 15.8376ZM45.3848 20.5519L45.1504 19.9091C45.1113 19.8116 45.0332 19.8506 45.0332 19.8506C44.8964 19.9091 44.7402 19.9481 44.5838 19.9676C44.4276 19.987 44.2517 20.0065 44.0564 20.0065C43.5875 20.0065 43.2163 19.8701 42.9622 19.5974C42.7083 19.3247 42.552 18.8961 42.552 18.2922C42.552 17.7468 42.6887 17.3376 42.9232 17.026C43.1577 16.7142 43.5093 16.5584 43.9782 16.5584C44.369 16.5584 44.6815 16.5974 44.9941 16.6948C44.9941 16.6948 45.0723 16.7337 45.1113 16.6363C45.1895 16.4026 45.2481 16.2468 45.3458 15.9935C45.3653 15.9155 45.3067 15.8961 45.2872 15.8766C45.17 15.8182 44.8769 15.7402 44.6424 15.7208C44.4276 15.6818 44.1931 15.6818 43.9196 15.6818C43.5093 15.6818 43.1577 15.7597 42.845 15.8766C42.5324 16.013 42.2785 16.2078 42.0635 16.4416C41.8682 16.6753 41.6923 16.9481 41.5947 17.2792C41.497 17.591 41.4384 17.9416 41.4384 18.3117C41.4384 19.1104 41.6532 19.7337 42.083 20.2013C42.5129 20.6688 43.1381 20.9026 43.9782 20.9026C44.4666 20.9026 44.9746 20.8052 45.3262 20.6688C45.3458 20.6688 45.4239 20.6493 45.3848 20.5519ZM50.0543 17.1039C49.9761 16.7922 49.7808 16.4805 49.644 16.3442C49.429 16.1104 49.2337 15.9545 49.0383 15.8766C48.7648 15.7597 48.4522 15.6818 48.1006 15.6818C47.6903 15.6818 47.3386 15.7597 47.026 15.8961C46.7329 16.0325 46.479 16.2273 46.2836 16.461C46.0882 16.6948 45.9319 16.987 45.8537 17.2987C45.756 17.6104 45.7169 17.961 45.7169 18.3312C45.7169 18.7013 45.7756 19.0519 45.8537 19.3637C45.9515 19.6753 46.1077 19.9481 46.3226 20.1818C46.5375 20.4156 46.8111 20.5909 47.1432 20.7273C47.4753 20.8442 47.8661 20.9221 48.3154 20.9221C49.2532 20.9221 49.7417 20.7078 49.937 20.5909C49.9761 20.5714 50.0152 20.5324 49.9565 20.435L49.7417 19.8506C49.7026 19.7532 49.6244 19.7922 49.6244 19.7922C49.39 19.8701 49.0578 20.026 48.2959 20.026C47.7879 20.026 47.4167 19.8701 47.1823 19.6363C46.9478 19.4026 46.8306 19.0519 46.8111 18.565H50.0543C50.0543 18.565 50.1324 18.565 50.152 18.487C50.152 18.4676 50.2496 17.8247 50.0543 17.1039ZM48.0224 16.5584C47.5926 16.5584 47.2995 16.7337 47.1041 17.026C46.9673 17.2208 46.8893 17.474 46.8502 17.7857H49.1555C49.136 17.4935 49.0774 17.2208 48.9407 17.026C48.7257 16.7142 48.4327 16.5584 48.0224 16.5584Z" fill="#0D9DDA"/>
<path d="M110.64 14.3188L110.113 15.059C109.565 14.6695 108.96 14.4747 108.316 14.4747C107.866 14.4747 107.514 14.5526 107.26 14.7279C107.006 14.9032 106.889 15.1564 106.889 15.4682C106.889 15.7019 106.948 15.8967 107.045 16.0526C107.143 16.2084 107.319 16.3253 107.573 16.4422C107.827 16.5396 108.178 16.6564 108.647 16.7734C109.39 16.9487 109.917 17.2214 110.269 17.5526C110.621 17.9032 110.796 18.3513 110.796 18.8967C110.796 19.598 110.542 20.1435 110.015 20.5331C109.487 20.9227 108.843 21.1175 108.061 21.1175C107.026 21.1175 106.166 20.8448 105.463 20.2798L106.01 19.5396C106.322 19.7538 106.635 19.9098 106.948 20.0266C107.26 20.124 107.612 20.1824 108.003 20.1824C108.491 20.1824 108.862 20.0851 109.135 19.8708C109.409 19.6564 109.546 19.3643 109.546 18.9941C109.546 18.7409 109.487 18.5461 109.39 18.3903C109.292 18.2343 109.116 18.098 108.882 18.0006C108.647 17.9032 108.277 17.7864 107.808 17.6695C107.065 17.4746 106.518 17.2214 106.186 16.9097C105.853 16.598 105.678 16.15 105.678 15.585C105.678 14.9811 105.913 14.4942 106.381 14.124C106.85 13.7539 107.475 13.5785 108.257 13.5785C109.195 13.559 109.976 13.8123 110.64 14.3188ZM99.5822 16.8318C99.6017 16.15 99.8162 15.585 100.168 15.1369C100.539 14.6889 101.047 14.4747 101.711 14.4747C102.376 14.4747 102.864 14.6889 103.216 15.1175C103.567 15.5461 103.744 16.1305 103.763 16.8318H99.5822ZM104.915 17.7669C104.935 17.65 104.935 17.4941 104.935 17.2603C104.935 16.15 104.662 15.2539 104.115 14.5721C103.567 13.8902 102.767 13.559 101.732 13.559C101.028 13.559 100.422 13.7149 99.9146 14.0266C99.4067 14.3382 99.0353 14.7863 98.7614 15.3513C98.5079 15.9162 98.3705 16.559 98.3705 17.2993C98.3705 18.4487 98.6834 19.3837 99.2888 20.0656C99.9146 20.7669 100.754 21.098 101.868 21.098C102.415 21.098 102.923 21.0201 103.392 20.8643C103.841 20.7085 104.271 20.4941 104.681 20.2019L104.154 19.4227C103.802 19.6564 103.45 19.8318 103.119 19.9487C102.767 20.0656 102.396 20.124 101.946 20.124C101.203 20.124 100.656 19.9098 100.246 19.4811C99.8561 19.0525 99.6212 18.4682 99.5822 17.7279H104.915V17.7669ZM94.5804 20.9227H95.7726V17.0656C95.7726 16.3253 95.9481 15.7409 96.3195 15.2734C96.6909 14.8058 97.2183 14.5916 97.9016 14.5916C98.0975 14.5916 98.2535 14.5916 98.3315 14.611L98.4095 13.5785C98.2145 13.559 98.078 13.5395 98 13.5395C96.9054 13.5395 96.1635 13.9876 95.7336 14.8837C95.7141 14.4357 95.6751 14.0655 95.6352 13.7539H94.4829C94.5414 14.2993 94.5804 14.8253 94.5804 15.3513V20.9227ZM86.3554 18.137C86.3554 19.0136 86.5899 19.7344 87.0393 20.2798C87.4886 20.8253 88.1724 21.098 89.0513 21.098C90.185 21.098 91.0252 20.65 91.5331 19.7538H91.5526C91.5721 20.2214 91.6111 20.5915 91.6501 20.8838H92.8024C92.7439 20.3383 92.7049 19.8123 92.7049 19.2864V13.7539H91.5136V17.5721C91.5136 18.3123 91.3177 18.9162 90.9268 19.4032C90.5368 19.8903 90.0086 20.1435 89.3447 20.1435C88.7393 20.1435 88.2897 19.9487 88.0161 19.5396C87.7231 19.15 87.5863 18.6045 87.5863 17.9617V13.7539H86.3554V18.137ZM83.4444 11.5721L82.2331 12.0006V13.7539L80.9827 13.8902V14.6695H82.2526V19.0915C82.2526 19.7344 82.4285 20.2409 82.7997 20.5915C83.1709 20.9422 83.6593 21.1175 84.2845 21.1175C84.7143 21.1175 85.0855 21.0591 85.3982 20.9422L85.2223 20.0656C85.0074 20.124 84.7729 20.163 84.519 20.163C83.8156 20.163 83.4639 19.7733 83.4639 19.0136V14.6695H85.3591V13.7539H83.4639V11.5721H83.4444ZM73.9494 20.9227H75.1412V16.8124C75.1412 16.1695 75.3365 15.624 75.7272 15.1954C76.118 14.7669 76.6455 14.5526 77.2902 14.5526C77.9154 14.5526 78.3843 14.7474 78.6578 15.1175C78.9313 15.4876 79.0876 15.9552 79.0876 16.5396V20.9227H80.2794V16.2863C80.2794 15.5071 80.0645 14.8642 79.6152 14.3382C79.1853 13.8123 78.5015 13.559 77.6028 13.559C77.0167 13.559 76.5087 13.676 76.0984 13.8902C75.6686 14.1045 75.3365 14.3967 75.1021 14.7669H75.0825C75.063 14.3382 75.0239 14.0071 74.9848 13.7539H73.8517C73.9103 14.2993 73.9494 14.8253 73.9494 15.3513V20.9227ZM67.2286 16.8318C67.2481 16.15 67.463 15.585 67.8146 15.1369C68.1859 14.6889 68.6938 14.4747 69.3581 14.4747C70.0224 14.4747 70.5108 14.6889 70.8625 15.1175C71.2141 15.5461 71.39 16.1305 71.4095 16.8318H67.2286ZM72.5818 17.7669C72.6013 17.65 72.6013 17.4941 72.6013 17.2603C72.6013 16.15 72.3277 15.2539 71.7807 14.5721C71.2337 13.8902 70.4326 13.559 69.3972 13.559C68.6938 13.559 68.0882 13.7149 67.5802 14.0266C67.0722 14.3382 66.701 14.7863 66.4275 15.3513C66.1736 15.9162 66.0368 16.559 66.0368 17.2993C66.0368 18.4487 66.3494 19.3837 66.9551 20.0656C67.5802 20.7669 68.4203 21.098 69.5339 21.098C70.081 21.098 70.589 21.0201 71.0579 20.8643C71.5072 20.7085 71.937 20.4941 72.3473 20.2019L71.8198 19.4227C71.4682 19.6564 71.1164 19.8318 70.7843 19.9487C70.4326 20.0656 70.0614 20.124 69.6121 20.124C68.8697 20.124 68.3226 19.9098 67.9123 19.4811C67.5216 19.0525 67.2872 18.4682 67.2481 17.7279H72.5818V17.7669ZM65.9 13.7539H64.6692L62.6178 19.7149H62.5787L60.4491 13.7539H59.1597L61.8949 20.9227H63.243L65.9 13.7539Z" fill="#032D60"/>
</g>
<defs>
<clipPath id="clip0_40_76">
<rect width="110.795" height="39" fill="white"/>
</clipPath>
</defs>
</svg>
