<svg width="114" height="35" viewBox="0 0 114 35" fill="none" xmlns="http://www.w3.org/2000/svg">
<path d="M58.5512 28.1138C62.8059 25.2731 65.4971 20.3331 65.223 14.8574C64.8056 6.57215 57.7538 0.19936 49.4686 0.616737C41.1833 1.03411 34.8105 8.08592 35.2279 16.3712C35.5768 23.342 40.6351 28.9672 47.1699 30.319C49.4187 30.8921 59.9466 33.5833 61.9463 34.0941C61.9089 34.0318 61.8902 33.9882 61.8902 33.9882L58.5512 28.1076V28.1138ZM48.4718 24.7312C44.4849 23.9462 41.3764 20.5574 41.1148 16.3151C40.8095 11.2754 44.6407 6.93969 49.6804 6.63444C54.72 6.3292 59.0558 10.1603 59.361 15.2C59.5666 18.5328 57.9531 21.5541 55.3866 23.3108L57.4548 26.8679C57.4548 26.8679 57.4672 26.8928 57.4922 26.9302C56.2712 26.6312 49.8423 25.0613 48.4718 24.7249V24.7312ZM36.125 0.622966L29.1604 28.363H22.7751L18.2151 10.0108L13.8109 28.363H7.47544L0.336426 0.622966H6.97085L10.7958 17.5548C10.8082 17.6358 10.883 17.9348 11.02 18.4518C11.0761 18.6387 11.1509 18.9253 11.2443 19.3053L15.7794 0.622966H21.7722L26.4381 19.299C26.5315 18.9439 26.6686 18.3646 26.843 17.5485L30.78 0.622966H36.125ZM87.942 5.90559H74.7292V11.5931H85.1138V16.8135H74.7292V22.8685H87.942V28.3567H68.1259V0.622966H87.942V5.90559ZM90.9509 0.622966H99.4167C102.868 0.622966 105.441 1.10264 107.135 2.05575C108.83 3.00887 110.343 4.52264 111.683 6.59083C113.022 8.65903 113.695 11.2692 113.695 14.4276C113.695 18.3958 112.524 21.7161 110.181 24.3761C107.839 27.0361 104.612 28.3692 100.494 28.3692H90.9509V0.622966ZM97.3299 5.72493V23.1426H100.009C102.376 23.1426 104.132 22.258 105.279 20.4889C106.425 18.7197 107.004 16.6453 107.004 14.2594C107.004 12.5774 106.674 11.0262 106.02 9.59346C105.366 8.1669 104.55 7.16395 103.578 6.5846C102.606 6.01149 101.435 5.7187 100.071 5.7187H97.3299V5.72493Z" fill="black"/>
</svg>
